<?xml version="1.0" encoding="UTF-8" standalone="no"?>
<!DOCTYPE svg PUBLIC "-//W3C//DTD SVG 1.1//EN" "http://www.w3.org/Graphics/SVG/1.1/DTD/svg11.dtd">
<svg width="100%" height="100%" viewBox="0 0 9934 14044" version="1.1" xmlns="http://www.w3.org/2000/svg" xmlns:xlink="http://www.w3.org/1999/xlink" xml:space="preserve" xmlns:serif="http://www.serif.com/" style="fill-rule:evenodd;clip-rule:evenodd;stroke-linejoin:round;stroke-miterlimit:2;">
    <g transform="matrix(1,0,0,1,414.057,4025.64)">
        <rect x="-265.263" y="-272.285" width="6407.18" height="3188.45" style="fill:rgb(202,58,58);"/>
    </g>
    <g transform="matrix(0.817636,0,0,0.790334,4186.53,310.419)">
        <ellipse cx="4723.12" cy="2701.16" rx="1079.01" ry="1112.92" style="fill:white;"/>
    </g>
    <g transform="matrix(4.16667,0,0,4.16667,-14271.4,-11222.6)">
        <path d="M3849.16,2745.71C3844.65,2753.83 3846,2763.61 3851.81,2770.2L3757.72,2946.78L3766.16,2952.2L3864.4,2777.16C3873.05,2778.57 3882.03,2774.53 3886.53,2766.43C3892.25,2756.11 3888.52,2743.11 3878.2,2737.38C3867.88,2731.66 3854.88,2735.39 3849.16,2745.71Z" style="fill:rgb(89,74,66);fill-rule:nonzero;"/>
        <path d="M3848.72,2745.46C3848.72,2745.46 3848.72,2745.46 3848.72,2745.46C3844.17,2753.67 3845.46,2763.53 3851.21,2770.27C3851.21,2770.27 3757.28,2946.54 3757.28,2946.54C3757.15,2946.77 3757.23,2947.06 3757.45,2947.2L3765.89,2952.62C3766,2952.7 3766.14,2952.72 3766.28,2952.69C3766.41,2952.66 3766.52,2952.57 3766.59,2952.45C3766.59,2952.45 3860.14,2785.77 3864.66,2777.7C3873.41,2778.99 3882.42,2774.86 3886.96,2766.67C3892.82,2756.11 3889.01,2742.8 3878.44,2736.95C3867.88,2731.09 3854.57,2734.9 3848.72,2745.46ZM3849.59,2745.95C3855.18,2735.87 3867.88,2732.23 3877.96,2737.82C3888.04,2743.41 3891.68,2756.11 3886.09,2766.19C3881.7,2774.1 3872.92,2778.04 3864.48,2776.66C3864.27,2776.63 3864.07,2776.73 3863.96,2776.91L3765.98,2951.5C3765.98,2951.5 3758.38,2946.61 3758.38,2946.61C3758.38,2946.61 3852.25,2770.43 3852.25,2770.43C3852.35,2770.25 3852.33,2770.03 3852.19,2769.87C3846.51,2763.43 3845.2,2753.88 3849.59,2745.95Z" style="fill:white;"/>
    </g>
    <g transform="matrix(2.57948,-3.27221,3.27221,2.57948,-18751.4,5900.31)">
        <path d="M3849.16,2745.71C3844.65,2753.83 3846,2763.61 3851.81,2770.2L3757.72,2946.78L3766.16,2952.2L3864.4,2777.16C3873.05,2778.57 3882.03,2774.53 3886.53,2766.43C3892.25,2756.11 3888.52,2743.11 3878.2,2737.38C3867.88,2731.66 3854.88,2735.39 3849.16,2745.71Z" style="fill:rgb(89,74,66);fill-rule:nonzero;"/>
        <path d="M3848.72,2745.46C3848.72,2745.46 3848.72,2745.46 3848.72,2745.46C3844.17,2753.67 3845.46,2763.53 3851.21,2770.27C3846.89,2778.38 3757.28,2946.54 3757.28,2946.54C3757.15,2946.77 3757.23,2947.06 3757.45,2947.2L3765.89,2952.62C3766,2952.7 3766.14,2952.72 3766.28,2952.69C3766.41,2952.66 3766.52,2952.57 3766.59,2952.45L3864.66,2777.7C3873.41,2778.99 3882.42,2774.86 3886.96,2766.67C3892.82,2756.11 3889.01,2742.8 3878.44,2736.95C3867.88,2731.09 3854.57,2734.9 3848.72,2745.46ZM3849.59,2745.95C3855.18,2735.87 3867.88,2732.23 3877.96,2737.82C3888.04,2743.41 3891.68,2756.11 3886.09,2766.19C3881.7,2774.1 3872.92,2778.04 3864.48,2776.66C3864.27,2776.63 3864.07,2776.73 3863.96,2776.91L3765.98,2951.5C3765.98,2951.5 3758.38,2946.61 3758.38,2946.61C3758.38,2946.61 3852.25,2770.43 3852.25,2770.43C3852.35,2770.25 3852.33,2770.03 3852.19,2769.87C3846.51,2763.43 3845.2,2753.88 3849.59,2745.95Z" style="fill:white;"/>
    </g>
    <g transform="matrix(4.16667,0,0,4.16667,-6281.33,-13344.3)">
        <path d="M1759.9,3592.42C1771.68,3600.96 1784.56,3608.92 1798.08,3616.01C1783.75,3531.91 1807.75,3424.53 1853.63,3352.83C1835.68,3343.94 1816.29,3337.54 1795.91,3334.06C1758.58,3394.6 1733.28,3527.51 1759.9,3592.42Z" style="fill:rgb(89,74,66);fill-rule:nonzero;"/>
        <path d="M1759.44,3592.61C1759.48,3592.7 1759.53,3592.77 1759.61,3592.83C1771.41,3601.38 1784.31,3609.35 1797.85,3616.46C1798.02,3616.54 1798.22,3616.53 1798.37,3616.42C1798.53,3616.31 1798.6,3616.12 1798.57,3615.93C1784.26,3531.94 1808.23,3424.7 1854.06,3353.1C1854.13,3352.98 1854.15,3352.83 1854.12,3352.69C1854.08,3352.56 1853.98,3352.44 1853.86,3352.38C1835.86,3343.47 1816.42,3337.05 1796,3333.56C1795.79,3333.53 1795.59,3333.62 1795.49,3333.79C1773.06,3370.17 1754.96,3432.63 1749.83,3490.83C1746.41,3529.66 1748.77,3566.59 1759.44,3592.61ZM1760.31,3592.1C1749.73,3566.2 1747.42,3529.5 1750.83,3490.91C1755.92,3433.04 1773.88,3370.92 1796.16,3334.61C1816.18,3338.06 1835.24,3344.34 1852.91,3353.03C1807.34,3424.54 1783.45,3531.22 1797.42,3615.1C1784.29,3608.16 1771.78,3600.41 1760.31,3592.1L1760.31,3592.1Z" style="fill:white;"/>
    </g>
    <g transform="matrix(4.16667,0,0,4.16667,-6281.33,-13344.3)">
        <path d="M1697.62,3526.84C1709.6,3545.52 1724.13,3562.39 1739.95,3576.45C1723.91,3506.57 1745.65,3392.96 1780.45,3332C1762.31,3330.27 1744.05,3330.87 1726.16,3333.78C1700.95,3384.57 1682.73,3467.99 1697.62,3526.84Z" style="fill:rgb(89,74,66);fill-rule:nonzero;"/>
        <path d="M1697.13,3526.96C1697.14,3527.01 1697.17,3527.06 1697.19,3527.11C1709.2,3545.83 1723.76,3562.74 1739.62,3576.83C1739.79,3576.97 1740.02,3576.99 1740.21,3576.88C1740.4,3576.77 1740.49,3576.55 1740.44,3576.34C1724.42,3506.56 1746.13,3393.12 1780.88,3332.25C1780.97,3332.1 1780.97,3331.92 1780.89,3331.77C1780.82,3331.62 1780.66,3331.52 1780.5,3331.51C1762.32,3329.77 1744.01,3330.37 1726.08,3333.29C1725.92,3333.31 1725.79,3333.41 1725.71,3333.56C1700.46,3384.44 1682.22,3468.01 1697.13,3526.96ZM1698.08,3526.63C1683.28,3467.99 1701.4,3384.93 1726.5,3334.23C1744.01,3331.41 1761.88,3330.8 1779.63,3332.43C1745.26,3393.19 1723.77,3505.2 1739.12,3575.04C1723.8,3561.24 1709.74,3544.8 1698.08,3526.64L1698.08,3526.63Z" style="fill:white;"/>
    </g>
    <g transform="matrix(4.16667,0,0,4.16667,-6281.33,-13344.3)">
        <path d="M1872.86,3643.86C1887.11,3646.95 1900.66,3648.51 1913.2,3648.52C1907.57,3587.62 1925.01,3511.01 1954.89,3460.05C1945.45,3437.83 1932.32,3417.55 1916.26,3399.98C1877.46,3477.35 1860.64,3571.42 1872.86,3643.86Z" style="fill:rgb(89,74,66);fill-rule:nonzero;"/>
        <path d="M1872.36,3643.94C1872.4,3644.14 1872.55,3644.3 1872.75,3644.35C1887.04,3647.45 1900.63,3649.01 1913.2,3649.02C1913.34,3649.02 1913.48,3648.96 1913.57,3648.86C1913.67,3648.75 1913.71,3648.61 1913.7,3648.47C1908.08,3587.67 1925.49,3511.19 1955.32,3460.3C1955.4,3460.16 1955.41,3460 1955.35,3459.85C1945.89,3437.58 1932.72,3417.25 1916.63,3399.64C1916.52,3399.52 1916.36,3399.46 1916.19,3399.48C1916.03,3399.51 1915.89,3399.61 1915.82,3399.76C1876.96,3477.22 1860.14,3571.42 1872.36,3643.94ZM1873.29,3643.44C1861.24,3571.35 1877.92,3477.88 1916.38,3400.86C1932.12,3418.2 1945.02,3438.16 1954.33,3460.01C1924.57,3510.91 1907.18,3587.2 1912.65,3648.02C1900.39,3647.97 1887.18,3646.44 1873.29,3643.44L1873.29,3643.44Z" style="fill:white;"/>
    </g>
    <g transform="matrix(4.16667,0,0,4.16667,-6281.33,-13344.3)">
        <path d="M1708.58,3337.42C1692.99,3341.35 1678.09,3347.01 1664.09,3354.18C1655.45,3400.55 1660.64,3447.31 1678.06,3489.39C1676.03,3439.7 1688.73,3381.66 1708.58,3337.42Z" style="fill:rgb(89,74,66);fill-rule:nonzero;"/>
        <path d="M1709.03,3337.63C1709.11,3337.45 1709.08,3337.25 1708.96,3337.1C1708.84,3336.95 1708.64,3336.89 1708.45,3336.94C1692.83,3340.87 1677.89,3346.54 1663.86,3353.74C1663.72,3353.81 1663.63,3353.94 1663.6,3354.09C1654.94,3400.56 1660.14,3447.42 1677.59,3489.58C1677.69,3489.8 1677.93,3489.93 1678.16,3489.87C1678.4,3489.82 1678.56,3489.61 1678.56,3489.37C1676.53,3439.75 1689.22,3381.8 1709.03,3337.63ZM1707.7,3338.16C1688.44,3381.51 1676.01,3437.82 1677.46,3486.59C1660.96,3445.36 1656.16,3399.75 1664.54,3354.52C1678.14,3347.56 1692.59,3342.05 1707.7,3338.16L1707.7,3338.16Z" style="fill:white;"/>
    </g>
    <g transform="matrix(4.16667,0,0,4.16667,-6281.33,-13344.3)">
        <path d="M1814.21,3623.92C1828.45,3630.43 1843.11,3635.92 1857.74,3640.06C1846.13,3559.86 1867.87,3462.48 1905.66,3389.17C1893.77,3377.88 1880.57,3367.95 1866.31,3359.65C1819.13,3432.7 1797.04,3544.25 1814.21,3623.92Z" style="fill:rgb(89,74,66);fill-rule:nonzero;"/>
        <path d="M1813.72,3624.02C1813.75,3624.18 1813.86,3624.31 1814,3624.37C1828.27,3630.89 1842.95,3636.39 1857.6,3640.54C1857.77,3640.59 1857.94,3640.55 1858.07,3640.44C1858.2,3640.33 1858.26,3640.16 1858.24,3639.99C1846.64,3559.88 1868.36,3462.62 1906.11,3389.4C1906.21,3389.21 1906.17,3388.97 1906.01,3388.81C1894.09,3377.49 1880.85,3367.54 1866.56,3359.22C1866.33,3359.08 1866.04,3359.15 1865.89,3359.38C1818.65,3432.53 1796.52,3544.24 1813.72,3624.02ZM1814.64,3623.57C1797.63,3544.18 1819.59,3433.2 1866.47,3360.32C1880.43,3368.5 1893.37,3378.23 1905.05,3389.28C1867.43,3462.4 1845.78,3559.34 1857.14,3639.37C1842.85,3635.28 1828.55,3629.91 1814.64,3623.57L1814.64,3623.57Z" style="fill:white;"/>
    </g>
    <g transform="matrix(4.16667,0,0,4.16667,-6281.33,-13344.3)">
        <path d="M1961.49,3477.78C1936.16,3526.74 1922.44,3594.66 1927.54,3647.8C1933.8,3647.14 1939.74,3646.04 1945.3,3644.47C1974.57,3591.59 1978.58,3530.86 1961.49,3477.78Z" style="fill:rgb(89,74,66);fill-rule:nonzero;"/>
        <path d="M1961.97,3477.63C1961.9,3477.43 1961.73,3477.3 1961.53,3477.28C1961.33,3477.26 1961.14,3477.37 1961.05,3477.55C1935.67,3526.59 1921.93,3594.62 1927.04,3647.85C1927.06,3647.98 1927.12,3648.1 1927.23,3648.19C1927.33,3648.27 1927.46,3648.31 1927.59,3648.3C1933.89,3647.64 1939.85,3646.53 1945.43,3644.95C1945.56,3644.91 1945.67,3644.83 1945.74,3644.71C1975.08,3591.7 1979.09,3530.83 1961.97,3477.63ZM1961.38,3479.09C1977.98,3531.7 1973.86,3591.71 1944.96,3644.05C1939.64,3645.53 1933.97,3646.6 1927.99,3647.25C1923.07,3594.66 1936.53,3527.73 1961.38,3479.09Z" style="fill:white;"/>
    </g>
    <g transform="matrix(4.16667,0,0,4.16667,-6281.33,-13344.3)">
        <path d="M1552.89,3501.06C1528.5,3623.51 1614.81,3738.1 1735.23,3752.35C1643.97,3707.03 1567.93,3610.12 1552.89,3501.06Z" style="fill:rgb(89,74,66);fill-rule:nonzero;"/>
        <path d="M1731.11,3749.7C1732.56,3750.45 1734,3751.18 1735.45,3751.9C1735.67,3752.01 1735.78,3752.26 1735.71,3752.49C1735.64,3752.72 1735.41,3752.87 1735.17,3752.84C1614.47,3738.57 1527.95,3623.7 1552.4,3500.96C1552.45,3500.72 1552.66,3500.55 1552.91,3500.56C1553.15,3500.57 1553.35,3500.75 1553.39,3500.99C1553.61,3502.61 1553.85,3504.23 1554.1,3505.85L1731.11,3749.7ZM1554.1,3505.85C1570.39,3611.02 1643.27,3704.27 1731.11,3749.7L1732.41,3751.49L1732.41,3751.49C1614.74,3735.94 1530.61,3624.16 1552.82,3504.09L1554.1,3505.85Z" style="fill:white;"/>
    </g>
    <g transform="matrix(4.16667,0,0,4.16667,-6281.33,-13344.3)">
        <path d="M1588.02,3419.94C1578.61,3433.12 1570.68,3447.43 1564.47,3462.62C1565.48,3602.53 1671.95,3719.87 1775.22,3753.29C1803.59,3751.29 1830.44,3743.66 1854.65,3731.52C1714.1,3695.48 1590.06,3566.15 1588.02,3419.94Z" style="fill:rgb(89,74,66);fill-rule:nonzero;"/>
        <path d="M1588.52,3419.93C1588.52,3419.72 1588.37,3419.53 1588.17,3419.46C1587.96,3419.4 1587.74,3419.47 1587.61,3419.65C1578.18,3432.87 1570.23,3447.21 1564,3462.43C1563.98,3462.49 1563.97,3462.55 1563.97,3462.62C1564.98,3602.77 1671.63,3720.29 1775.07,3753.76C1775.13,3753.78 1775.19,3753.79 1775.26,3753.78C1803.7,3751.78 1830.61,3744.14 1854.87,3731.97C1855.06,3731.88 1855.17,3731.68 1855.15,3731.47C1855.12,3731.26 1854.98,3731.09 1854.77,3731.04C1714.43,3695.05 1590.56,3565.92 1588.52,3419.93ZM1587.54,3421.47C1590.42,3566.82 1713.5,3695.24 1853.23,3731.67C1829.42,3743.42 1803.09,3750.81 1775.28,3752.78C1672.23,3719.39 1566.02,3602.32 1564.97,3462.71C1570.96,3448.07 1578.56,3434.26 1587.54,3421.47L1587.54,3421.47Z" style="fill:white;"/>
    </g>
    <g transform="matrix(4.16667,0,0,4.16667,-6281.33,-13344.3)">
        <path d="M1648.09,3363.29C1631.25,3373.87 1616,3386.75 1602.79,3401.5C1593.26,3558.01 1733.81,3692.22 1873.11,3721.07C1897.55,3705.57 1918.61,3685.2 1934.91,3661.33C1815.47,3679.37 1621.29,3558.38 1648.09,3363.29Z" style="fill:rgb(89,74,66);fill-rule:nonzero;"/>
        <path d="M1648.59,3363.36C1648.61,3363.16 1648.53,3362.97 1648.36,3362.87C1648.2,3362.76 1647.99,3362.76 1647.83,3362.87C1630.95,3373.47 1615.66,3386.39 1602.42,3401.16C1602.34,3401.25 1602.3,3401.36 1602.29,3401.47C1592.74,3558.22 1733.49,3692.66 1873.01,3721.56C1873.14,3721.59 1873.27,3721.57 1873.38,3721.49C1897.88,3705.96 1918.99,3685.54 1935.32,3661.61C1935.43,3661.45 1935.44,3661.23 1935.33,3661.06C1935.23,3660.89 1935.03,3660.8 1934.83,3660.83C1887.16,3668.03 1827.56,3653.02 1774.9,3619.97C1695.9,3570.39 1632.53,3480.19 1648.59,3363.36ZM1647.45,3364.28C1631.87,3481.05 1695.31,3571.2 1774.37,3620.82C1826.83,3653.75 1886.16,3668.82 1933.85,3661.99C1917.72,3685.34 1897,3705.3 1873.02,3720.54C1734.05,3691.66 1593.88,3557.82 1603.28,3401.7C1616.2,3387.31 1631.06,3374.7 1647.45,3364.28L1647.45,3364.28Z" style="fill:white;"/>
    </g>
    <g transform="matrix(1,0,0,1,-718.188,-4279.11)">
        <clipPath id="_clip1">
            <path d="M3230.85,5166.39C3220.81,5176.42 3219.78,5192.33 3228.43,5203.58C3294.71,5289.75 3361.14,5322.6 3463.22,5322.6C3488.65,5322.6 3511.8,5320.38 3546.44,5315.22C3546.57,5323.11 3546.57,5329.54 3546.57,5335.16C3546.57,5522.56 3527.57,5642.59 3482.18,5736.87C3446.99,5809.52 3407.01,5855.85 3325.27,5916.01C3312.92,5925.1 3310.08,5942.39 3318.88,5954.95L3327.28,5966.95C3334.73,5977.6 3348.47,5981.79 3360.59,5977.11C3487.69,5928.03 3559.06,5879.66 3618.21,5807.93C3618.24,5807.89 3618.27,5807.85 3618.31,5807.81C3685.45,5725.46 3715.86,5620.66 3715.86,5463.56C3715.86,5463.48 3715.86,5463.4 3715.86,5463.32L3714.66,5318.24C3714.66,5318.24 3714.66,5284.82 3714.66,5284.82C3797.99,5262.43 3820.39,5256.01 3852.26,5242.35C3913.61,5216.5 3931.4,5190.28 3933.01,5162.82C3933.05,5162.26 3933.06,5161.71 3933.06,5161.16L3933.06,5158.76C3933.06,5132.5 3920.31,5110.3 3888.69,5093.34C3866.57,5080.26 3835.85,5071.71 3812.42,5071.71C3795.87,5071.71 3781.55,5076.32 3769.14,5086.66C3768.94,5086.82 3768.75,5086.99 3768.56,5087.15C3750.19,5103.32 3736.18,5112.38 3713.99,5121.91C3716.04,5082.16 3718.87,5059.51 3724.01,5044.09C3738.06,5001.95 3737.46,4999.01 3737.46,4983.56C3737.46,4953.61 3723.26,4929.64 3691.55,4910.26C3691.34,4910.13 3691.14,4910.01 3690.93,4909.89C3656.71,4890.15 3589.76,4874.91 3529.22,4874.91C3472.59,4874.91 3449.81,4882.32 3422.22,4905.55C3414.12,4912.37 3410.52,4923.15 3412.89,4933.48C3415.26,4943.8 3423.2,4951.93 3433.46,4954.53C3494.54,4970.05 3517.21,4980.21 3528.93,5012.03C3536.26,5034.49 3541.02,5094.39 3542.63,5176.7C3492.76,5189.08 3444.55,5195.31 3397.22,5195.31C3351.06,5195.31 3318.62,5183.53 3278.75,5153.1C3267.51,5144.52 3251.65,5145.58 3241.64,5155.59L3230.85,5166.39ZM3074.47,5563.94C3072.36,5546.62 3071.46,5527.19 3071.46,5504.36C3071.46,5404.91 3095.87,5298.56 3139.8,5199.1C3160.46,5153.63 3165.06,5136.79 3165.06,5111.96C3165.06,5076.31 3147.2,5035.19 3118.04,4998.64C3076.16,4946.13 3011.72,4903.54 2954.83,4897.85C2943.72,4896.74 2933,4902.28 2927.47,4911.98C2921.95,4921.68 2922.66,4933.73 2929.28,4942.71C2958.4,4982.23 2970.57,5012.12 2970.57,5049.56C2970.57,5082.27 2966.88,5113.78 2949.36,5218.91C2931.04,5328.8 2922.57,5410.61 2922.57,5488.76C2922.57,5638.63 2954.42,5771.78 3003.45,5837.61C3027.76,5872.98 3057.66,5887.8 3090.02,5887.8C3141.43,5887.8 3177.06,5849.26 3177.06,5787.56C3177.06,5777.82 3176.97,5768.1 3175.58,5758.36C3175.57,5758.33 3175.57,5758.3 3175.56,5758.27C3168.86,5712.47 3168.66,5712.49 3168.66,5703.56C3168.66,5663.49 3180.9,5597.57 3230.4,5373.65C3233.65,5358.94 3224.78,5344.27 3210.25,5340.31L3197.05,5336.71C3183.78,5333.09 3169.84,5339.55 3164.02,5352.01C3155.49,5370.29 3148.17,5388.57 3140.86,5405.63C3140.84,5405.67 3140.82,5405.7 3140.81,5405.74C3098.82,5504.89 3097.58,5507.82 3074.47,5563.94ZM4521.05,5313.49C4508.24,5307.09 4492.67,5311.28 4484.81,5323.25C4436.05,5397.5 4392.37,5469.7 4324.77,5585.76C4319.23,5577.59 4315.04,5568.11 4310.81,5555.43C4310.79,5555.36 4310.77,5555.28 4310.74,5555.22C4296.08,5512.35 4288.26,5461.59 4288.26,5411.96C4288.26,5361.55 4297.45,5296.26 4313.49,5242.42C4313.61,5242.02 4313.72,5241.61 4313.82,5241.21C4320.73,5213.55 4323.06,5202.4 4323.06,5189.96C4323.06,5167.09 4319.95,5151.87 4309.28,5130.53C4283.1,5078.17 4237.69,5031.99 4174.91,4995.31C4131.32,4968.62 4111.23,4962.51 4078.82,4962.51C4067.73,4962.51 4057.68,4968.99 4053.1,4979.09C4048.52,4989.18 4050.26,5001.02 4057.56,5009.36C4110.81,5070.21 4121.37,5101.83 4121.37,5188.76L4121.37,5207.64C4118.97,5313.51 4118.97,5313.52 4118.97,5321.96C4118.97,5490.68 4151.13,5621.7 4213.62,5716.68C4213.65,5716.73 4213.68,5716.78 4213.72,5716.82C4265.47,5794.46 4339.78,5844.6 4395.62,5844.6C4445.69,5844.6 4481.46,5807.05 4481.46,5758.76C4481.46,5745.16 4480.04,5737.59 4477.02,5725.51C4476.82,5724.73 4476.6,5723.96 4476.34,5723.2C4463.71,5686.38 4461.06,5678.09 4461.06,5659.16C4461.06,5640.08 4466.91,5603.11 4475.88,5564.97C4490.04,5507.17 4499.58,5477.62 4546.78,5354.9C4552,5341.32 4546.06,5326 4533.05,5319.49L4521.05,5313.49ZM4914.14,5485.33C4912.2,5486.38 4909.03,5488.06 4906.27,5489.29C4887.36,5497.55 4842.59,5511.53 4739.21,5542.07C4725.2,5546.21 4716.65,5560.36 4719.52,5574.7L4721.92,5586.7C4724.52,5599.71 4735.83,5609.15 4749.09,5609.4C4799.47,5610.33 4833.62,5611.56 4858.24,5614.81C4886.69,5618.56 4899.06,5624.89 4911.99,5639.39C4936.03,5666.83 4953.79,5674.2 4981.22,5674.2C5053.59,5674.2 5109.06,5607.19 5109.06,5506.76C5109.06,5410.11 5079.37,5323.8 5018.82,5249.05C4953.29,5166.85 4869.95,5118.96 4753.01,5099.69C4739.6,5097.48 4726.52,5105.13 4721.87,5117.9L4717.07,5131.11C4712.02,5144.99 4718.53,5160.42 4731.99,5166.5C4799.95,5197.19 4845.83,5244.47 4878.73,5315.7C4899.97,5362.7 4914.57,5427.54 4914.57,5476.76C4914.57,5479.61 4914.32,5483.16 4914.14,5485.33ZM5665.71,5354.57C5508.64,5449.7 5430.57,5555.73 5430.57,5665.16C5430.57,5761.85 5487.41,5845.18 5581.37,5883.32C5642.79,5908.38 5719.16,5920.2 5833.22,5920.2C5924.43,5920.2 6036.58,5911.31 6078.49,5901.45C6078.61,5901.42 6078.74,5901.39 6078.87,5901.36C6139.67,5886.16 6163.86,5857.6 6163.86,5818.76C6163.86,5789.56 6156.22,5769.89 6133.55,5745.57C6103.71,5712.82 6067.64,5696.91 6028.82,5696.91C6014.38,5696.91 6001.34,5698.22 5979.89,5705.3C5876.18,5733.21 5787.58,5746.11 5703.62,5746.11C5610.66,5746.11 5555.46,5719.82 5555.46,5659.16C5555.46,5616.7 5579.61,5581.51 5629.14,5545.12C5629.26,5545.03 5629.37,5544.95 5629.49,5544.86C5696.65,5493.91 5795.27,5453.88 5921.46,5422.61C6032.74,5396.35 6034.33,5395.22 6047.68,5387.91C6081.41,5371.69 6095.46,5348.19 6095.46,5312.36C6095.46,5256.68 6046.97,5208.51 5988.02,5208.51C5961.28,5208.51 5928.88,5216.84 5871.46,5244.86C5811.44,5272.72 5790.53,5281.71 5774.42,5281.71C5772.09,5281.71 5770.03,5281.79 5768.52,5280.66C5766.83,5279.4 5766.21,5277.14 5765.43,5274.55C5763.72,5268.85 5763.06,5261.86 5763.06,5253.56C5763.06,5154.48 5775.58,5056.39 5796.08,5015.39C5796.15,5015.24 5796.23,5015.09 5796.3,5014.94C5813.33,4979.33 5812.26,4978.99 5812.26,4961.96C5812.26,4925.1 5787.82,4891.94 5725.43,4869.47C5681.36,4852.66 5634.69,4843.71 5593.22,4843.71C5543.62,4843.71 5530.38,4849.11 5501.82,4873.15C5493.43,4880.23 5489.89,4891.52 5492.75,4902.12C5495.61,4912.72 5504.36,4920.7 5515.18,4922.59C5534.61,4925.96 5550.03,4929.85 5562.09,4935.05C5574.39,4940.36 5582.24,4946.75 5586.11,4956.65C5586.17,4956.81 5586.24,4956.96 5586.3,4957.11C5594.19,4976.27 5595.29,4998.91 5599.79,5106.99C5602.26,5185.18 5605.18,5233.2 5611.03,5265.23C5618.18,5304.37 5629.86,5323.64 5647.88,5340.96C5652.81,5345.85 5658.89,5350.45 5665.71,5354.57Z" clip-rule="nonzero"/>
        </clipPath>
        <g clip-path="url(#_clip1)">
            <g transform="matrix(1,-0,-0,1,718.188,4279.11)">
                <path d="M2512.66,887.276C2502.62,897.308 2501.59,913.224 2510.24,924.469C2576.52,1010.64 2642.95,1043.49 2745.03,1043.49C2770.47,1043.49 2793.61,1041.27 2828.26,1036.11C2828.38,1044 2828.38,1050.43 2828.38,1056.05C2828.38,1243.45 2809.39,1363.48 2763.99,1457.77C2728.8,1530.41 2688.82,1576.74 2607.09,1636.9C2594.73,1645.99 2591.89,1663.28 2600.69,1675.85L2609.09,1687.85C2616.54,1698.49 2630.29,1702.68 2642.4,1698C2769.51,1648.92 2840.88,1600.55 2900.02,1528.82C2900.05,1528.78 2900.09,1528.74 2900.12,1528.7C2967.27,1446.35 2997.67,1341.55 2997.67,1184.45C2997.67,1184.37 2997.67,1184.29 2997.67,1184.21L2996.47,1039.13C2996.47,1039.13 2996.47,1005.71 2996.47,1005.71C3079.8,983.322 3102.2,976.899 3134.08,963.244C3195.43,937.394 3213.21,911.171 3214.83,883.707C3214.86,883.154 3214.87,882.601 3214.87,882.048L3214.87,879.648C3214.87,853.389 3202.13,831.188 3170.5,814.235C3148.38,801.153 3117.66,792.603 3094.23,792.603C3077.68,792.603 3063.36,797.207 3050.95,807.55C3050.75,807.712 3050.56,807.877 3050.37,808.044C3032,824.21 3017.99,833.272 2995.8,842.801C2997.85,803.047 3000.68,780.405 3005.82,764.98C3019.87,722.843 3019.27,719.898 3019.27,704.448C3019.27,674.496 3005.07,650.528 2973.36,631.147C2973.15,631.023 2972.95,630.902 2972.74,630.783C2938.53,611.042 2871.57,595.803 2811.03,595.803C2754.41,595.803 2731.62,603.213 2704.03,626.443C2695.93,633.265 2692.33,644.044 2694.7,654.366C2697.07,664.688 2705.01,672.817 2715.28,675.424C2776.35,690.935 2799.02,701.1 2810.74,732.918C2818.07,755.379 2822.84,815.281 2824.44,897.591C2774.57,909.974 2726.36,916.203 2679.03,916.203C2632.87,916.203 2600.43,904.419 2560.56,873.995C2549.32,865.413 2533.46,866.473 2523.46,876.476L2512.66,887.276ZM2356.28,1284.83C2354.17,1267.51 2353.27,1248.09 2353.27,1225.25C2353.27,1125.8 2377.68,1019.45 2421.61,919.993C2442.27,874.52 2446.87,857.684 2446.87,832.848C2446.87,797.197 2429.01,756.082 2399.85,719.525C2357.98,667.016 2293.54,624.433 2236.64,618.743C2225.53,617.632 2214.81,623.169 2209.28,632.87C2203.76,642.571 2204.47,654.615 2211.09,663.603C2240.21,703.125 2252.38,733.006 2252.38,770.448C2252.38,803.156 2248.69,834.672 2231.17,939.805C2212.85,1049.69 2204.38,1131.51 2204.38,1209.65C2204.38,1359.52 2236.23,1492.67 2285.26,1558.5C2309.57,1593.87 2339.47,1608.69 2371.83,1608.69C2423.24,1608.69 2458.87,1570.14 2458.87,1508.45C2458.87,1498.71 2458.78,1488.99 2457.39,1479.25C2457.39,1479.22 2457.38,1479.19 2457.38,1479.16C2450.67,1433.36 2450.47,1433.38 2450.47,1424.45C2450.47,1384.38 2462.71,1318.46 2512.21,1094.55C2515.46,1079.84 2506.6,1065.16 2492.06,1061.2L2478.86,1057.6C2465.59,1053.98 2451.65,1060.44 2445.83,1072.9C2437.3,1091.18 2429.98,1109.46 2422.67,1126.52C2422.65,1126.56 2422.64,1126.6 2422.62,1126.63C2380.63,1225.78 2379.39,1228.71 2356.28,1284.83Z" style="fill:rgb(89,74,66);"/>
            </g>
            <g transform="matrix(1,-0,-0,1,718.188,4279.11)">
                <path d="M3802.86,1034.38C3790.05,1027.98 3774.48,1032.17 3766.62,1044.14C3717.86,1118.39 3674.19,1190.59 3606.58,1306.65C3601.04,1298.48 3596.85,1289 3592.62,1276.32C3592.6,1276.25 3592.58,1276.18 3592.55,1276.11C3577.89,1233.25 3570.07,1182.48 3570.07,1132.85C3570.07,1082.44 3579.26,1017.15 3595.3,963.311C3595.42,962.91 3595.53,962.505 3595.63,962.099C3602.55,934.439 3604.87,923.295 3604.87,910.848C3604.87,887.984 3601.76,872.756 3591.09,851.417C3564.91,799.062 3519.5,752.878 3456.72,716.203C3413.13,689.508 3393.05,683.403 3360.63,683.403C3349.55,683.403 3339.49,689.885 3334.91,699.977C3330.33,710.069 3332.07,721.907 3339.37,730.248C3392.62,791.099 3403.18,822.718 3403.18,909.648L3403.18,928.527C3400.78,1034.4 3400.78,1034.41 3400.78,1042.85C3400.78,1211.57 3432.94,1342.59 3495.43,1437.57C3495.46,1437.62 3495.5,1437.67 3495.53,1437.72C3547.28,1515.35 3621.59,1565.49 3677.43,1565.49C3727.51,1565.49 3763.27,1527.94 3763.27,1479.65C3763.27,1466.05 3761.85,1458.48 3758.83,1446.4C3758.64,1445.62 3758.41,1444.85 3758.15,1444.09C3745.52,1407.27 3742.87,1398.98 3742.87,1380.05C3742.87,1360.97 3748.72,1324.01 3757.69,1285.86C3771.85,1228.06 3781.39,1198.51 3828.59,1075.79C3833.81,1062.21 3827.87,1046.89 3814.86,1040.38L3802.86,1034.38ZM4195.96,1206.22C4194.01,1207.28 4190.85,1208.95 4188.09,1210.18C4169.17,1218.44 4124.4,1232.42 4021.03,1262.96C4007.01,1267.1 3998.47,1281.25 4001.33,1295.59L4003.73,1307.59C4006.33,1320.6 4017.64,1330.04 4030.91,1330.29C4081.28,1331.22 4115.43,1332.45 4140.06,1335.7C4168.51,1339.45 4180.88,1345.78 4193.8,1360.28C4217.84,1387.72 4235.6,1395.09 4263.03,1395.09C4335.4,1395.09 4390.87,1328.08 4390.87,1227.65C4390.87,1131 4361.18,1044.69 4300.64,969.943C4235.1,887.74 4151.76,839.854 4034.82,820.579C4021.41,818.369 4008.33,826.023 4003.68,838.796L3998.89,851.996C3993.84,865.88 4000.34,881.309 4013.8,887.39C4081.76,918.08 4127.65,965.364 4160.54,1036.59C4181.78,1083.59 4196.38,1148.43 4196.38,1197.65C4196.38,1200.51 4196.14,1204.05 4195.96,1206.22Z" style="fill:rgb(89,74,66);"/>
            </g>
            <g transform="matrix(1,-0,-0,1,718.188,4279.11)">
                <path d="M4947.52,1075.46C4790.45,1170.59 4712.38,1276.62 4712.38,1386.05C4712.38,1482.74 4769.22,1566.07 4863.18,1604.21C4924.6,1629.27 5000.98,1641.09 5115.03,1641.09C5206.24,1641.09 5318.39,1632.2 5360.3,1622.34C5360.43,1622.31 5360.55,1622.28 5360.68,1622.25C5421.48,1607.05 5445.67,1578.49 5445.67,1539.65C5445.67,1510.45 5438.03,1490.78 5415.36,1466.46C5385.52,1433.71 5349.45,1417.8 5310.63,1417.8C5296.19,1417.8 5283.15,1419.11 5261.7,1426.19C5157.99,1454.1 5069.39,1467 4985.43,1467C4892.48,1467 4837.27,1440.71 4837.27,1380.05C4837.27,1337.59 4861.42,1302.4 4910.95,1266.01C4911.07,1265.92 4911.19,1265.84 4911.3,1265.75C4978.46,1214.8 5077.08,1174.77 5203.27,1143.5C5314.56,1117.24 5316.14,1116.11 5329.49,1108.8C5363.23,1092.58 5377.27,1069.08 5377.27,1033.25C5377.27,977.566 5328.79,929.403 5269.83,929.403C5243.09,929.403 5210.69,937.731 5153.28,965.75C5093.26,993.614 5072.34,1002.6 5056.23,1002.6C5053.9,1002.6 5051.84,1002.68 5050.33,1001.55C5048.65,1000.28 5048.02,998.028 5047.24,995.442C5045.53,989.743 5044.87,982.745 5044.87,974.448C5044.87,875.373 5057.39,777.276 5077.89,736.28C5077.97,736.132 5078.04,735.984 5078.11,735.835C5095.14,700.217 5094.07,699.883 5094.07,682.848C5094.07,645.99 5069.63,612.828 5007.24,590.361C4963.17,573.547 4916.5,564.603 4875.03,564.603C4825.44,564.603 4812.19,569.998 4783.64,594.043C4775.24,601.116 4771.7,612.415 4774.56,623.014C4777.43,633.614 4786.17,641.594 4796.99,643.475C4816.42,646.854 4831.84,650.741 4843.9,655.945C4856.2,661.249 4864.05,667.638 4867.93,677.541C4867.99,677.695 4868.05,677.849 4868.11,678.002C4876,697.156 4877.1,719.796 4881.6,827.883C4884.07,906.071 4886.99,954.095 4892.84,986.124C4899.99,1025.26 4911.67,1044.53 4929.69,1061.85C4934.62,1066.74 4940.7,1071.34 4947.52,1075.46Z" style="fill:rgb(89,74,66);"/>
            </g>
        </g>
        <g transform="matrix(1,-0,-0,1,718.188,4279.11)">
            <path d="M2512.66,887.276C2502.62,897.308 2501.59,913.224 2510.24,924.469C2576.52,1010.64 2642.95,1043.49 2745.03,1043.49C2770.47,1043.49 2793.61,1041.27 2828.26,1036.11C2828.38,1044 2828.38,1050.43 2828.38,1056.05C2828.38,1243.45 2809.39,1363.48 2763.99,1457.77C2728.8,1530.41 2688.82,1576.74 2607.09,1636.9C2594.73,1645.99 2591.89,1663.28 2600.69,1675.85L2609.09,1687.85C2616.54,1698.49 2630.29,1702.68 2642.4,1698C2769.51,1648.92 2840.88,1600.55 2900.02,1528.82C2900.05,1528.78 2900.09,1528.74 2900.12,1528.7C2967.27,1446.35 2997.67,1341.55 2997.67,1184.45C2997.67,1184.37 2997.67,1184.29 2997.67,1184.21L2996.47,1039.13C2996.47,1039.13 2996.47,1005.71 2996.47,1005.71C3079.8,983.322 3102.2,976.899 3134.08,963.244C3195.43,937.394 3213.21,911.171 3214.83,883.707C3214.86,883.154 3214.87,882.601 3214.87,882.048L3214.87,879.648C3214.87,853.389 3202.13,831.188 3170.5,814.235C3148.38,801.153 3117.66,792.603 3094.23,792.603C3077.68,792.603 3063.36,797.207 3050.95,807.55C3050.75,807.712 3050.56,807.877 3050.37,808.044C3032,824.21 3017.99,833.272 2995.8,842.801C2997.85,803.047 3000.68,780.405 3005.82,764.98C3019.87,722.843 3019.27,719.898 3019.27,704.448C3019.27,674.496 3005.07,650.528 2973.36,631.147C2973.15,631.023 2972.95,630.902 2972.74,630.783C2938.53,611.042 2871.57,595.803 2811.03,595.803C2754.41,595.803 2731.62,603.213 2704.03,626.443C2695.93,633.265 2692.33,644.044 2694.7,654.366C2697.07,664.688 2705.01,672.817 2715.28,675.424C2776.35,690.935 2799.02,701.1 2810.74,732.918C2818.07,755.379 2822.84,815.281 2824.44,897.591C2774.57,909.974 2726.36,916.203 2679.03,916.203C2632.87,916.203 2600.43,904.419 2560.56,873.995C2549.32,865.413 2533.46,866.473 2523.46,876.476L2512.66,887.276ZM2356.28,1284.83C2354.17,1267.51 2353.27,1248.09 2353.27,1225.25C2353.27,1125.8 2377.68,1019.45 2421.61,919.993C2442.27,874.52 2446.87,857.684 2446.87,832.848C2446.87,797.197 2429.01,756.082 2399.85,719.525C2357.98,667.016 2293.54,624.433 2236.64,618.743C2225.53,617.632 2214.81,623.169 2209.28,632.87C2203.76,642.571 2204.47,654.615 2211.09,663.603C2240.21,703.125 2252.38,733.006 2252.38,770.448C2252.38,803.156 2248.69,834.672 2231.17,939.805C2212.85,1049.69 2204.38,1131.51 2204.38,1209.65C2204.38,1359.52 2236.23,1492.67 2285.26,1558.5C2309.57,1593.87 2339.47,1608.69 2371.83,1608.69C2423.24,1608.69 2458.87,1570.14 2458.87,1508.45C2458.87,1498.71 2458.78,1488.99 2457.39,1479.25C2457.39,1479.22 2457.38,1479.19 2457.38,1479.16C2450.67,1433.36 2450.47,1433.38 2450.47,1424.45C2450.47,1384.38 2462.71,1318.46 2512.21,1094.55C2515.46,1079.84 2506.6,1065.16 2492.06,1061.2L2478.86,1057.6C2465.59,1053.98 2451.65,1060.44 2445.83,1072.9C2437.3,1091.18 2429.98,1109.46 2422.67,1126.52C2422.65,1126.56 2422.64,1126.6 2422.62,1126.63C2380.63,1225.78 2379.39,1228.71 2356.28,1284.83Z" style="fill:none;stroke:white;stroke-width:8.33px;"/>
        </g>
        <g transform="matrix(1,-0,-0,1,718.188,4279.11)">
            <path d="M3802.86,1034.38C3790.05,1027.98 3774.48,1032.17 3766.62,1044.14C3717.86,1118.39 3674.19,1190.59 3606.58,1306.65C3601.04,1298.48 3596.85,1289 3592.62,1276.32C3592.6,1276.25 3592.58,1276.18 3592.55,1276.11C3577.89,1233.25 3570.07,1182.48 3570.07,1132.85C3570.07,1082.44 3579.26,1017.15 3595.3,963.311C3595.42,962.91 3595.53,962.505 3595.63,962.099C3602.55,934.439 3604.87,923.295 3604.87,910.848C3604.87,887.984 3601.76,872.756 3591.09,851.417C3564.91,799.062 3519.5,752.878 3456.72,716.203C3413.13,689.508 3393.05,683.403 3360.63,683.403C3349.55,683.403 3339.49,689.885 3334.91,699.977C3330.33,710.069 3332.07,721.907 3339.37,730.248C3392.62,791.099 3403.18,822.718 3403.18,909.648L3403.18,928.527C3400.78,1034.4 3400.78,1034.41 3400.78,1042.85C3400.78,1211.57 3432.94,1342.59 3495.43,1437.57C3495.46,1437.62 3495.5,1437.67 3495.53,1437.72C3547.28,1515.35 3621.59,1565.49 3677.43,1565.49C3727.51,1565.49 3763.27,1527.94 3763.27,1479.65C3763.27,1466.05 3761.85,1458.48 3758.83,1446.4C3758.64,1445.62 3758.41,1444.85 3758.15,1444.09C3745.52,1407.27 3742.87,1398.98 3742.87,1380.05C3742.87,1360.97 3748.72,1324.01 3757.69,1285.86C3771.85,1228.06 3781.39,1198.51 3828.59,1075.79C3833.81,1062.21 3827.87,1046.89 3814.86,1040.38L3802.86,1034.38ZM4195.96,1206.22C4194.01,1207.28 4190.85,1208.95 4188.09,1210.18C4169.17,1218.44 4124.4,1232.42 4021.03,1262.96C4007.01,1267.1 3998.47,1281.25 4001.33,1295.59L4003.73,1307.59C4006.33,1320.6 4017.64,1330.04 4030.91,1330.29C4081.28,1331.22 4115.43,1332.45 4140.06,1335.7C4168.51,1339.45 4180.88,1345.78 4193.8,1360.28C4217.84,1387.72 4235.6,1395.09 4263.03,1395.09C4335.4,1395.09 4390.87,1328.08 4390.87,1227.65C4390.87,1131 4361.18,1044.69 4300.64,969.943C4235.1,887.74 4151.76,839.854 4034.82,820.579C4021.41,818.369 4008.33,826.023 4003.68,838.796L3998.89,851.996C3993.84,865.88 4000.34,881.309 4013.8,887.39C4081.76,918.08 4127.65,965.364 4160.54,1036.59C4181.78,1083.59 4196.38,1148.43 4196.38,1197.65C4196.38,1200.51 4196.14,1204.05 4195.96,1206.22Z" style="fill:none;stroke:white;stroke-width:8.33px;"/>
        </g>
        <g transform="matrix(1,-0,-0,1,718.188,4279.11)">
            <path d="M4947.52,1075.46C4790.45,1170.59 4712.38,1276.62 4712.38,1386.05C4712.38,1482.74 4769.22,1566.07 4863.18,1604.21C4924.6,1629.27 5000.98,1641.09 5115.03,1641.09C5206.24,1641.09 5318.39,1632.2 5360.3,1622.34C5360.43,1622.31 5360.55,1622.28 5360.68,1622.25C5421.48,1607.05 5445.67,1578.49 5445.67,1539.65C5445.67,1510.45 5438.03,1490.78 5415.36,1466.46C5385.52,1433.71 5349.45,1417.8 5310.63,1417.8C5296.19,1417.8 5283.15,1419.11 5261.7,1426.19C5157.99,1454.1 5069.39,1467 4985.43,1467C4892.48,1467 4837.27,1440.71 4837.27,1380.05C4837.27,1337.59 4861.42,1302.4 4910.95,1266.01C4911.07,1265.92 4911.19,1265.84 4911.3,1265.75C4978.46,1214.8 5077.08,1174.77 5203.27,1143.5C5314.56,1117.24 5316.14,1116.11 5329.49,1108.8C5363.23,1092.58 5377.27,1069.08 5377.27,1033.25C5377.27,977.566 5328.79,929.403 5269.83,929.403C5243.09,929.403 5210.69,937.731 5153.28,965.75C5093.26,993.614 5072.34,1002.6 5056.23,1002.6C5053.9,1002.6 5051.84,1002.68 5050.33,1001.55C5048.65,1000.28 5048.02,998.028 5047.24,995.442C5045.53,989.743 5044.87,982.745 5044.87,974.448C5044.87,875.373 5057.39,777.276 5077.89,736.28C5077.97,736.132 5078.04,735.984 5078.11,735.835C5095.14,700.217 5094.07,699.883 5094.07,682.848C5094.07,645.99 5069.63,612.828 5007.24,590.361C4963.17,573.547 4916.5,564.603 4875.03,564.603C4825.44,564.603 4812.19,569.998 4783.64,594.043C4775.24,601.116 4771.7,612.415 4774.56,623.014C4777.43,633.614 4786.17,641.594 4796.99,643.475C4816.42,646.854 4831.84,650.741 4843.9,655.945C4856.2,661.249 4864.05,667.638 4867.93,677.541C4867.99,677.695 4868.05,677.849 4868.11,678.002C4876,697.156 4877.1,719.796 4881.6,827.883C4884.07,906.071 4886.99,954.095 4892.84,986.124C4899.99,1025.26 4911.67,1044.53 4929.69,1061.85C4934.62,1066.74 4940.7,1071.34 4947.52,1075.46Z" style="fill:none;stroke:white;stroke-width:8.33px;"/>
        </g>
    </g>
    <g transform="matrix(1,0,0,1,283.692,408.127)">
        <text x="2042.22px" y="1629.49px" style="font-family:'HiraMinProN-W6', 'Hiragino Mincho ProN', serif;font-weight:600;font-size:266.667px;fill:rgb(89,74,66);">key &amp; token generator</text>
        <path d="M2101.93,1571.76L2115.62,1556.35C2115.62,1556.35 2140.5,1600.93 2140.5,1600.93C2142.37,1604.4 2149.54,1618.74 2152.2,1624.59C2152.37,1624.96 2152.74,1625.2 2153.15,1625.2L2202.22,1625.2C2202.79,1625.2 2203.26,1624.74 2203.26,1624.16L2203.26,1618.29C2203.26,1617.8 2202.92,1617.38 2202.44,1617.28C2190.45,1614.67 2185.02,1609.92 2175.38,1593.77C2175.38,1593.77 2138.7,1530.69 2138.7,1530.69C2138.7,1530.69 2148.05,1520.33 2148.05,1520.33C2159.13,1508.19 2164.4,1503.7 2173.37,1498.95C2173.37,1498.95 2173.37,1498.95 2173.38,1498.94C2180.72,1495.01 2187.02,1493.18 2195.41,1492.13C2195.93,1492.06 2196.33,1491.62 2196.33,1491.09L2196.33,1484.96C2196.33,1484.38 2195.86,1483.92 2195.28,1483.92L2126.48,1483.92C2125.91,1483.92 2125.44,1484.38 2125.44,1484.96L2125.44,1491.09C2125.44,1491.64 2125.87,1492.1 2126.42,1492.13C2131.39,1492.44 2135.25,1493.15 2138.08,1494.36C2142.01,1496.03 2143.84,1498.68 2143.84,1502.56C2143.84,1507.18 2140.95,1512.53 2135.82,1518.68C2135.82,1518.68 2101.93,1557.64 2101.93,1557.64C2101.93,1557.64 2101.93,1476.43 2101.93,1476.43C2101.93,1458.58 2102.46,1441.53 2103.52,1421.82C2103.54,1421.52 2103.43,1421.23 2103.22,1421.02C2103.01,1420.81 2102.72,1420.7 2102.43,1420.72L2048.29,1423.65C2047.74,1423.68 2047.31,1424.14 2047.31,1424.69L2047.31,1430.83C2047.31,1431.4 2047.77,1431.87 2048.35,1431.87C2052.86,1431.87 2056.35,1432.01 2059.06,1432.59C2061.54,1433.12 2063.32,1434.02 2064.56,1435.6C2065.58,1436.91 2066.24,1438.65 2066.69,1440.96C2067.42,1444.66 2067.57,1449.74 2067.57,1456.69L2067.57,1591.09C2067.57,1598.13 2067.42,1603.29 2066.7,1607.08C2066.04,1610.57 2064.93,1612.82 2062.89,1614.24C2060.04,1616.23 2055.57,1616.62 2048.6,1616.72C2048.03,1616.73 2047.58,1617.19 2047.58,1617.76L2047.58,1624.16C2047.58,1624.74 2048.04,1625.2 2048.62,1625.2L2120.88,1625.2C2121.46,1625.2 2121.93,1624.74 2121.93,1624.16L2121.93,1617.76C2121.93,1617.19 2121.47,1616.73 2120.9,1616.72C2113.93,1616.62 2109.45,1616.27 2106.6,1614.31C2104.57,1612.92 2103.46,1610.69 2102.8,1607.19C2102.08,1603.4 2101.93,1598.21 2101.93,1591.09L2101.93,1571.76ZM2100.11,1570.67C2099.93,1570.86 2099.84,1571.11 2099.84,1571.36L2099.84,1591.09C2099.84,1598.38 2100.02,1603.7 2100.75,1607.58C2101.54,1611.76 2102.99,1614.37 2105.42,1616.03C2108.37,1618.05 2112.89,1618.64 2119.84,1618.78C2119.84,1618.78 2119.84,1623.12 2119.84,1623.12C2119.84,1623.12 2049.66,1623.12 2049.66,1623.12C2049.66,1623.12 2049.66,1618.78 2049.66,1618.78C2056.62,1618.63 2061.14,1618 2064.09,1615.95C2066.51,1614.26 2067.96,1611.63 2068.75,1607.46C2069.48,1603.59 2069.66,1598.3 2069.66,1591.09C2069.66,1591.09 2069.66,1456.69 2069.66,1456.69C2069.66,1449.57 2069.48,1444.36 2068.74,1440.56C2068.21,1437.86 2067.4,1435.84 2066.2,1434.32C2064.68,1432.37 2062.54,1431.2 2059.5,1430.55C2056.89,1429.99 2053.59,1429.81 2049.39,1429.79C2049.39,1429.79 2049.39,1425.68 2049.39,1425.68C2049.39,1425.68 2101.38,1422.86 2101.38,1422.86C2100.35,1442.13 2099.84,1458.89 2099.84,1476.43L2099.84,1560.43C2099.84,1560.86 2100.11,1561.25 2100.52,1561.4C2100.93,1561.56 2101.38,1561.44 2101.67,1561.11L2137.4,1520.04C2137.41,1520.04 2137.41,1520.03 2137.42,1520.03C2142.95,1513.39 2145.93,1507.54 2145.93,1502.56C2145.93,1495.09 2140.44,1491.1 2127.53,1490.12C2127.53,1490.12 2127.53,1486 2127.53,1486C2127.53,1486 2194.24,1486 2194.24,1486C2194.24,1486 2194.24,1490.18 2194.24,1490.18C2186.02,1491.28 2179.71,1493.19 2172.39,1497.11C2163.23,1501.96 2157.83,1506.53 2146.51,1518.92L2136.64,1529.86C2136.34,1530.2 2136.29,1530.69 2136.52,1531.08L2173.58,1594.82C2173.59,1594.82 2173.59,1594.82 2173.59,1594.83C2183.45,1611.36 2189.2,1616.37 2201.18,1619.13C2201.18,1619.13 2201.18,1623.12 2201.18,1623.12C2201.18,1623.12 2153.82,1623.12 2153.82,1623.12C2150.95,1616.9 2144.14,1603.29 2142.33,1599.93C2142.33,1599.93 2142.33,1599.92 2142.33,1599.92L2116.73,1554.05C2116.56,1553.76 2116.26,1553.56 2115.93,1553.53C2115.59,1553.49 2115.26,1553.62 2115.04,1553.87L2100.11,1570.67Z" style="fill:white;"/>
        <path d="M2342.75,1550C2343.03,1550 2343.3,1549.89 2343.5,1549.68C2343.69,1549.48 2343.8,1549.21 2343.79,1548.93C2343.25,1531.96 2341.89,1523.88 2338.93,1515.8C2338.93,1515.8 2338.92,1515.79 2338.92,1515.79C2329.96,1492.44 2310.44,1479.92 2282.75,1479.92C2241.62,1479.92 2214.78,1509.63 2214.78,1555.09C2214.78,1577.66 2221.7,1596.17 2233.96,1609.05C2246.24,1621.94 2263.9,1629.2 2285.42,1629.2C2313.31,1629.2 2331.46,1617.84 2345.01,1592.11C2345.26,1591.63 2345.1,1591.04 2344.64,1590.75L2337.98,1586.48C2337.73,1586.32 2337.43,1586.28 2337.14,1586.36C2336.86,1586.43 2336.62,1586.63 2336.49,1586.89C2326.82,1605.96 2311.44,1616.72 2293.42,1616.72C2277.56,1616.72 2265.64,1608.1 2258.11,1590.95C2253.44,1580.05 2251.59,1568.9 2251.27,1550C2251.27,1550 2342.75,1550 2342.75,1550ZM2341.67,1547.92L2250.22,1547.92C2249.94,1547.92 2249.67,1548.03 2249.47,1548.23C2249.28,1548.43 2249.17,1548.7 2249.18,1548.97C2249.44,1568.89 2251.35,1580.47 2256.19,1591.77C2256.19,1591.77 2256.2,1591.78 2256.2,1591.78C2264.13,1609.83 2276.74,1618.8 2293.42,1618.8C2311.87,1618.8 2327.72,1608.08 2337.82,1588.85C2337.82,1588.85 2342.71,1591.99 2342.71,1591.99C2329.64,1616.33 2312.15,1627.12 2285.42,1627.12C2264.54,1627.12 2247.39,1620.12 2235.47,1607.61C2223.54,1595.08 2216.86,1577.06 2216.86,1555.09C2216.86,1510.95 2242.81,1482 2282.75,1482C2309.46,1482 2328.33,1494.01 2336.97,1516.53C2339.81,1524.27 2341.12,1532.02 2341.67,1547.92L2341.67,1547.92ZM2249.45,1541.15C2249.42,1541.44 2249.52,1541.72 2249.72,1541.93C2249.92,1542.15 2250.19,1542.27 2250.48,1542.27L2309.42,1542.27C2309.7,1542.27 2309.97,1542.15 2310.16,1541.95C2310.36,1541.75 2310.47,1541.48 2310.46,1541.19C2309.92,1524.23 2308.83,1515.89 2305.87,1507.55C2305.86,1507.54 2305.86,1507.54 2305.86,1507.54C2300.6,1492.87 2292.75,1486.05 2281.95,1486.05C2270.09,1486.05 2260.89,1494.21 2255.1,1510.21C2255.1,1510.21 2255.1,1510.21 2255.1,1510.21C2252.14,1518.55 2250.52,1527.16 2249.45,1541.15ZM2251.61,1540.18C2252.67,1527.1 2254.24,1518.88 2257.06,1510.91C2262.47,1495.97 2270.87,1488.13 2281.95,1488.13C2291.95,1488.13 2299.03,1494.65 2303.9,1508.24C2306.74,1516.25 2307.8,1524.27 2308.34,1540.18L2251.61,1540.18Z" style="fill:white;"/>
        <path d="M2442.49,1586.32L2415.99,1516.86C2412.87,1508.53 2412.06,1505.67 2412.06,1501.76C2412.06,1499.82 2412.4,1498.22 2413.19,1496.93C2414.11,1495.45 2415.61,1494.4 2417.75,1493.68C2420.09,1492.89 2423.16,1492.49 2427.04,1492.4C2427.61,1492.39 2428.06,1491.93 2428.06,1491.36L2428.06,1484.96C2428.06,1484.38 2427.59,1483.92 2427.02,1483.92L2355.82,1483.92C2355.24,1483.92 2354.78,1484.38 2354.78,1484.96L2354.78,1491.09C2354.78,1491.63 2355.19,1492.09 2355.73,1492.13C2359.34,1492.44 2362.08,1492.89 2364.38,1493.95C2367,1495.16 2369.01,1497.18 2371.14,1500.63C2373.38,1504.26 2375.71,1509.43 2378.86,1516.83C2378.86,1516.83 2425.36,1627.91 2425.36,1627.91C2425.36,1627.91 2421.51,1638.18 2421.51,1638.18C2418.59,1645.25 2416.19,1649.32 2412.97,1651.41C2410.89,1652.76 2408.49,1653.25 2405.42,1653.25C2402.8,1653.25 2400.71,1652.98 2394.43,1651.67C2394.43,1651.67 2394.42,1651.67 2394.42,1651.67C2388.99,1650.59 2386,1650.32 2383.55,1650.32C2380.49,1650.32 2378.01,1651.19 2376.11,1652.85C2373.36,1655.26 2371.84,1659.41 2371.84,1665.23C2371.84,1671.71 2373.65,1676.55 2377.1,1679.79C2380.53,1683.01 2385.63,1684.67 2392.35,1684.67C2409.24,1684.67 2419.21,1674.75 2430.38,1646.68L2475.72,1531.48C2487.48,1501.93 2493.86,1494.22 2508.5,1492.12C2509.01,1492.05 2509.39,1491.61 2509.39,1491.09L2509.39,1484.96C2509.39,1484.38 2508.93,1483.92 2508.35,1483.92L2450.22,1483.92C2449.64,1483.92 2449.18,1484.38 2449.18,1484.96L2449.18,1491.09C2449.18,1491.65 2449.61,1492.1 2450.16,1492.13C2458.73,1492.59 2464.31,1494.33 2467.37,1497.98C2469.36,1500.36 2470.24,1503.54 2470.24,1507.63C2470.24,1512.59 2469.18,1517.29 2465.78,1525.91L2442.49,1586.32ZM2441.51,1589.6C2441.66,1590 2442.05,1590.27 2442.48,1590.27C2442.91,1590.27 2443.3,1590 2443.45,1589.6L2467.72,1526.67C2471.26,1517.7 2472.33,1512.8 2472.33,1507.63C2472.33,1502.96 2471.24,1499.36 2468.97,1496.65C2465.75,1492.8 2460.05,1490.71 2451.26,1490.11C2451.26,1490.11 2451.26,1486 2451.26,1486C2451.26,1486 2507.31,1486 2507.31,1486C2507.31,1486 2507.31,1490.2 2507.31,1490.2C2492.7,1492.55 2485.78,1500.59 2473.78,1530.71L2428.45,1645.91C2417.75,1672.78 2408.52,1682.59 2392.35,1682.59C2386.27,1682.59 2381.63,1681.18 2378.53,1678.27C2375.45,1675.37 2373.93,1671.02 2373.93,1665.23C2373.93,1660.17 2375.09,1656.51 2377.49,1654.41C2379.03,1653.07 2381.06,1652.4 2383.55,1652.4C2385.9,1652.4 2388.78,1652.67 2394.01,1653.71C2400.53,1655.07 2402.7,1655.34 2405.42,1655.34C2408.96,1655.34 2411.71,1654.72 2414.1,1653.16C2417.58,1650.9 2420.29,1646.59 2423.45,1638.96C2423.45,1638.95 2423.45,1638.94 2423.46,1638.93L2427.46,1628.26C2427.55,1628.01 2427.55,1627.74 2427.44,1627.49L2380.78,1516.02C2377.57,1508.49 2375.19,1503.23 2372.91,1499.53C2370.52,1495.65 2368.2,1493.42 2365.25,1492.06C2362.97,1491.01 2360.3,1490.48 2356.86,1490.14C2356.86,1490.14 2356.86,1486 2356.86,1486C2356.86,1486 2425.97,1486 2425.97,1486C2425.97,1486 2425.97,1490.35 2425.97,1490.35C2419.3,1490.61 2415.02,1491.9 2412.61,1494.33C2410.82,1496.13 2409.97,1498.56 2409.97,1501.76C2409.97,1505.85 2410.77,1508.86 2414.04,1517.59L2441.51,1589.6Z" style="fill:white;"/>
        <path d="M2746.48,1511.12C2745.91,1511.12 2745.44,1511.59 2745.44,1512.16L2745.44,1518.83C2745.44,1519.36 2745.85,1519.81 2746.38,1519.86C2755.94,1520.79 2761.93,1522.54 2765.16,1526.09C2767.24,1528.38 2768.11,1531.4 2768.11,1535.36C2768.11,1545.33 2764.09,1556.03 2755.65,1569.66C2755.65,1569.66 2701.64,1512.05 2701.64,1512.05C2736.38,1498.64 2750.99,1483.95 2750.99,1462.83C2750.99,1438.3 2729.86,1422.32 2696.88,1422.32C2676.27,1422.32 2658.94,1428.35 2649.44,1439.2C2641.8,1447.39 2637.18,1458.85 2637.18,1469.49C2637.18,1484.63 2643.62,1497.19 2661.79,1517.36C2629.72,1530.85 2615.58,1548.92 2615.58,1575.63C2615.58,1590.87 2621.32,1605.28 2630.57,1613.99C2630.58,1613.99 2630.58,1614 2630.59,1614C2640.88,1623.21 2657.66,1628.4 2676.88,1628.4C2701.63,1628.4 2719.55,1621.32 2739.45,1604.29C2739.45,1604.29 2757.7,1624.85 2757.7,1624.85C2757.9,1625.07 2758.18,1625.2 2758.48,1625.2L2812.35,1625.2C2812.93,1625.2 2813.39,1624.74 2813.39,1624.16L2813.39,1617.49C2813.39,1616.95 2812.97,1616.5 2812.43,1616.45C2801.97,1615.67 2797.06,1612.45 2781.91,1596.51L2763.28,1577.11C2768.48,1569.21 2773.66,1559.87 2777.82,1551.28C2777.82,1551.28 2777.83,1551.27 2777.83,1551.27C2787.02,1531.56 2787.51,1530.48 2791.97,1526.54C2796.36,1522.67 2801.02,1520.89 2809.8,1519.86C2810.33,1519.8 2810.72,1519.36 2810.72,1518.83L2810.72,1512.16C2810.72,1511.59 2810.26,1511.12 2809.68,1511.12L2746.48,1511.12ZM2747.53,1513.2L2808.64,1513.2C2808.64,1513.2 2808.64,1517.9 2808.64,1517.9C2799.88,1519.03 2795.12,1520.99 2790.59,1524.98C2785.99,1529.04 2785.41,1530.09 2775.94,1550.38C2771.7,1559.14 2766.39,1568.69 2761.08,1576.65C2760.81,1577.06 2760.86,1577.6 2761.2,1577.95L2780.4,1597.95C2795.7,1614.04 2801.07,1617.51 2811.31,1618.45C2811.31,1618.45 2811.31,1623.12 2811.31,1623.12C2811.31,1623.12 2758.95,1623.12 2758.95,1623.12C2758.95,1623.12 2740.33,1602.13 2740.33,1602.13C2739.95,1601.71 2739.3,1601.67 2738.87,1602.04C2719.08,1619.19 2701.41,1626.32 2676.88,1626.32C2658.25,1626.32 2641.97,1621.38 2631.99,1612.46C2623.11,1604.1 2617.66,1590.25 2617.66,1575.63C2617.66,1549.37 2631.92,1531.85 2663.95,1518.72C2664.26,1518.6 2664.49,1518.32 2664.57,1517.99C2664.64,1517.66 2664.55,1517.31 2664.32,1517.06C2645.91,1496.81 2639.26,1484.49 2639.26,1469.49C2639.26,1459.34 2643.69,1448.41 2650.98,1440.6C2650.99,1440.6 2650.99,1440.59 2651,1440.58C2660.17,1430.1 2676.97,1424.4 2696.88,1424.4C2728.44,1424.4 2748.91,1439.36 2748.91,1462.83C2748.91,1483.54 2734.06,1497.54 2699.45,1510.65C2699.12,1510.78 2698.88,1511.05 2698.8,1511.39C2698.72,1511.73 2698.82,1512.09 2699.06,1512.34L2755.06,1572.07C2755.28,1572.31 2755.6,1572.43 2755.92,1572.4C2756.24,1572.37 2756.53,1572.19 2756.7,1571.91C2765.9,1557.3 2770.19,1545.92 2770.19,1535.36C2770.19,1530.79 2769.1,1527.33 2766.7,1524.69C2763.34,1520.99 2757.25,1518.91 2747.53,1517.88C2747.53,1517.88 2747.53,1513.2 2747.53,1513.2ZM2734.69,1597.16C2735.08,1596.77 2735.1,1596.14 2734.72,1595.73L2671.26,1525.06C2670.89,1524.66 2670.28,1524.6 2669.85,1524.93C2664.13,1529.29 2661.69,1531.75 2658.69,1536.1C2658.69,1536.11 2658.69,1536.11 2658.69,1536.11C2653.52,1543.72 2650.24,1555.4 2650.24,1567.36C2650.24,1597.37 2666.71,1616.93 2692.08,1616.93C2701.05,1616.93 2710.84,1614.49 2718.72,1610.14C2724.13,1607.16 2727.38,1604.47 2734.69,1597.16ZM2732.51,1596.39C2725.9,1602.96 2722.8,1605.52 2717.71,1608.31C2717.71,1608.31 2717.71,1608.32 2717.71,1608.32C2710.13,1612.5 2700.71,1614.85 2692.08,1614.85C2667.86,1614.85 2652.33,1596.02 2652.33,1567.36C2652.33,1555.85 2655.44,1544.6 2660.41,1537.28C2663.14,1533.31 2665.41,1530.99 2670.35,1527.17C2670.35,1527.17 2732.51,1596.39 2732.51,1596.39L2732.51,1596.39ZM2694.95,1506.42C2694.97,1506.42 2694.98,1506.41 2695,1506.4C2704.47,1500.99 2708.79,1498 2713.39,1492.86C2720.49,1484.94 2724.06,1474.58 2724.06,1462.03C2724.06,1449.5 2720.33,1440.05 2713.78,1434.49C2709.37,1430.74 2703.66,1428.72 2696.88,1428.72C2680.3,1428.72 2669.18,1441.36 2669.18,1460.43C2669.18,1471.04 2672.41,1479.49 2680.58,1490.64C2680.58,1490.65 2680.59,1490.65 2680.59,1490.66C2683.74,1494.78 2691.49,1504.35 2693.39,1506.03C2693.76,1506.36 2694.07,1506.48 2694.22,1506.52C2694.53,1506.58 2694.76,1506.52 2694.95,1506.42ZM2694.55,1504.26C2692.36,1502.15 2685.23,1493.3 2682.25,1489.4C2674.42,1478.7 2671.26,1470.61 2671.26,1460.43C2671.26,1442.69 2681.46,1430.8 2696.88,1430.8C2703.12,1430.8 2708.38,1432.62 2712.43,1436.08C2718.6,1441.31 2721.97,1450.24 2721.97,1462.03C2721.97,1474.01 2718.61,1483.91 2711.84,1491.46C2711.84,1491.46 2711.84,1491.46 2711.84,1491.47C2707.47,1496.35 2703.34,1499.21 2694.55,1504.26Z" style="fill:white;"/>
        <path d="M2965.93,1494.54L2997.15,1494.54C2997.72,1494.54 2998.19,1494.07 2998.19,1493.49L2998.19,1484.96C2998.19,1484.38 2997.72,1483.92 2997.15,1483.92L2965.93,1483.92C2965.93,1460.48 2966.2,1452.31 2966.72,1441.54C2966.74,1441.24 2966.62,1440.95 2966.4,1440.74C2966.18,1440.53 2965.88,1440.43 2965.58,1440.46L2952.25,1441.79C2951.78,1441.84 2951.41,1442.18 2951.33,1442.64C2948.96,1455.8 2946.34,1463.43 2941.61,1470.8C2941.61,1470.8 2941.61,1470.8 2941.61,1470.8C2935.68,1480.08 2928.45,1483.94 2917.1,1484.45C2916.55,1484.48 2916.11,1484.94 2916.11,1485.49L2916.11,1493.49C2916.11,1494.07 2916.57,1494.54 2917.15,1494.54L2931.31,1494.54C2931.31,1494.54 2931.31,1576.69 2931.31,1576.69C2931.31,1600.72 2932.17,1607.19 2935.41,1613.94C2935.42,1613.96 2935.43,1613.98 2935.43,1613.99C2940.66,1623.62 2951.63,1629.2 2966.48,1629.2C2980.6,1629.2 2992.55,1624.86 3003.68,1615.63C3004.07,1615.31 3004.17,1614.76 3003.93,1614.32L3000.19,1607.65C3000.04,1607.38 2999.78,1607.2 2999.48,1607.14C2999.18,1607.08 2998.87,1607.16 2998.63,1607.35C2992.19,1612.5 2986.03,1615.38 2980.62,1615.38C2975.43,1615.38 2970.51,1611.65 2968.53,1606.21C2966.69,1600.95 2965.93,1594.12 2965.93,1582.56L2965.93,1494.54ZM2964.88,1492.45C2964.31,1492.45 2963.84,1492.92 2963.84,1493.49L2963.84,1582.56C2963.84,1594.46 2964.67,1601.49 2966.57,1606.9C2966.57,1606.91 2966.57,1606.91 2966.57,1606.92C2968.86,1613.21 2974.61,1617.47 2980.62,1617.47C2986.13,1617.47 2992.42,1614.76 2998.97,1609.73C2998.97,1609.73 3001.68,1614.57 3001.68,1614.57C2991.14,1623.1 2979.82,1627.12 2966.48,1627.12C2952.56,1627.12 2942.2,1622.05 2937.28,1613.03C2934.13,1606.44 2933.39,1600.11 2933.39,1576.69L2933.39,1493.49C2933.39,1492.92 2932.93,1492.45 2932.35,1492.45L2918.19,1492.45C2918.19,1492.45 2918.19,1486.48 2918.19,1486.48C2929.74,1485.75 2937.2,1481.57 2943.36,1471.92C2948.13,1464.5 2950.84,1456.83 2953.23,1443.79C2953.23,1443.79 2964.58,1442.65 2964.58,1442.65C2964.09,1453.03 2963.84,1461.57 2963.84,1484.96C2963.84,1485.54 2964.31,1486 2964.88,1486L2996.11,1486C2996.11,1486 2996.11,1492.45 2996.11,1492.45C2996.11,1492.45 2964.88,1492.45 2964.88,1492.45Z" style="fill:white;"/>
        <path d="M3015.04,1555.63C3015.04,1576.43 3021.82,1595.61 3033.71,1608.86C3045.08,1621.59 3064.3,1629.47 3084.62,1629.47C3106,1629.47 3125.74,1621.33 3138.19,1607.53C3138.19,1607.52 3138.19,1607.52 3138.19,1607.52C3149.27,1595.09 3156.06,1575.1 3156.06,1554.03C3156.06,1531.59 3149.14,1513.09 3136.94,1500.18C3124.72,1487.25 3107.2,1479.92 3085.95,1479.92C3065.37,1479.92 3046.97,1486.99 3035.33,1499.17C3035.33,1499.18 3035.33,1499.18 3035.32,1499.18C3022.63,1512.69 3015.04,1533.48 3015.04,1555.63ZM3017.12,1555.63C3017.12,1534.05 3024.47,1513.77 3036.84,1500.61C3048.13,1488.8 3066,1482 3085.95,1482C3106.56,1482 3123.58,1489.07 3135.43,1501.61C3147.3,1514.17 3153.97,1532.2 3153.97,1554.03C3153.97,1574.55 3147.43,1594.03 3136.64,1606.13C3124.56,1619.53 3105.37,1627.38 3084.62,1627.38C3064.93,1627.38 3046.28,1619.8 3035.26,1607.47C3035.26,1607.47 3035.26,1607.47 3035.26,1607.46C3023.68,1594.57 3017.12,1575.88 3017.12,1555.63ZM3051.04,1554.29C3051.04,1577.57 3053.76,1594.72 3059.35,1606.05C3065.08,1617.69 3073.8,1623.34 3085.68,1623.34C3097.7,1623.34 3106.41,1617.96 3112.12,1606.56C3117.67,1595.46 3120.33,1578.51 3120.33,1555.09C3120.33,1531.55 3117.6,1514.4 3111.98,1503.13C3106.22,1491.56 3097.43,1486.05 3085.42,1486.05C3074.07,1486.05 3064.38,1491.88 3059.67,1502.12C3053.76,1513.68 3051.04,1530.89 3051.04,1554.29ZM3053.12,1554.29C3053.12,1531.31 3055.73,1514.39 3061.54,1503.04C3061.55,1503.02 3061.56,1503.01 3061.56,1503C3065.92,1493.51 3074.9,1488.13 3085.42,1488.13C3096.6,1488.13 3104.75,1493.29 3110.12,1504.06C3115.63,1515.12 3118.24,1531.97 3118.24,1555.09C3118.24,1578.08 3115.7,1594.73 3110.25,1605.63C3104.95,1616.23 3096.86,1621.25 3085.68,1621.25C3074.63,1621.25 3066.55,1615.96 3061.22,1605.13C3055.73,1594 3053.12,1577.15 3053.12,1554.29Z" style="fill:white;"/>
        <path d="M3225.93,1571.76L3239.62,1556.35C3239.62,1556.35 3264.5,1600.93 3264.5,1600.93C3266.37,1604.4 3273.54,1618.74 3276.2,1624.59C3276.37,1624.96 3276.74,1625.2 3277.15,1625.2L3326.22,1625.2C3326.79,1625.2 3327.26,1624.74 3327.26,1624.16L3327.26,1618.29C3327.26,1617.8 3326.92,1617.38 3326.44,1617.28C3314.45,1614.67 3309.02,1609.92 3299.38,1593.77C3299.38,1593.77 3262.7,1530.69 3262.7,1530.69C3262.7,1530.69 3272.05,1520.33 3272.05,1520.33C3283.13,1508.19 3288.4,1503.7 3297.37,1498.95C3297.37,1498.95 3297.37,1498.95 3297.38,1498.94C3304.72,1495.01 3311.02,1493.18 3319.41,1492.13C3319.93,1492.06 3320.33,1491.62 3320.33,1491.09L3320.33,1484.96C3320.33,1484.38 3319.86,1483.92 3319.28,1483.92L3250.48,1483.92C3249.91,1483.92 3249.44,1484.38 3249.44,1484.96L3249.44,1491.09C3249.44,1491.64 3249.87,1492.1 3250.42,1492.13C3255.39,1492.44 3259.25,1493.15 3262.08,1494.36C3266.01,1496.03 3267.84,1498.68 3267.84,1502.56C3267.84,1507.18 3264.95,1512.53 3259.82,1518.68C3259.82,1518.68 3225.93,1557.64 3225.93,1557.64C3225.93,1557.64 3225.93,1476.43 3225.93,1476.43C3225.93,1458.58 3226.46,1441.53 3227.52,1421.82C3227.54,1421.52 3227.43,1421.23 3227.22,1421.02C3227.01,1420.81 3226.72,1420.7 3226.43,1420.72L3172.29,1423.65C3171.74,1423.68 3171.31,1424.14 3171.31,1424.69L3171.31,1430.83C3171.31,1431.4 3171.77,1431.87 3172.35,1431.87C3176.86,1431.87 3180.35,1432.01 3183.06,1432.59C3185.54,1433.12 3187.32,1434.02 3188.56,1435.6C3189.58,1436.91 3190.24,1438.65 3190.69,1440.96C3191.42,1444.66 3191.58,1449.74 3191.58,1456.69L3191.58,1591.09C3191.58,1598.13 3191.42,1603.29 3190.7,1607.08C3190.04,1610.57 3188.93,1612.82 3186.89,1614.24C3184.04,1616.23 3179.57,1616.62 3172.6,1616.72C3172.03,1616.73 3171.58,1617.19 3171.58,1617.76L3171.58,1624.16C3171.58,1624.74 3172.04,1625.2 3172.62,1625.2L3244.88,1625.2C3245.46,1625.2 3245.93,1624.74 3245.93,1624.16L3245.93,1617.76C3245.93,1617.19 3245.47,1616.73 3244.9,1616.72C3237.93,1616.62 3233.45,1616.27 3230.6,1614.31C3228.57,1612.92 3227.46,1610.69 3226.8,1607.19C3226.08,1603.4 3225.93,1598.21 3225.93,1591.09L3225.93,1571.76ZM3224.11,1570.67C3223.93,1570.86 3223.84,1571.11 3223.84,1571.36L3223.84,1591.09C3223.84,1598.38 3224.02,1603.7 3224.75,1607.58C3225.54,1611.76 3226.99,1614.37 3229.42,1616.03C3232.37,1618.05 3236.89,1618.64 3243.84,1618.78C3243.84,1618.78 3243.84,1623.12 3243.84,1623.12C3243.84,1623.12 3173.66,1623.12 3173.66,1623.12C3173.66,1623.12 3173.66,1618.78 3173.66,1618.78C3180.62,1618.63 3185.14,1618 3188.09,1615.95C3190.51,1614.26 3191.96,1611.63 3192.75,1607.46C3193.48,1603.59 3193.66,1598.3 3193.66,1591.09C3193.66,1591.09 3193.66,1456.69 3193.66,1456.69C3193.66,1449.57 3193.48,1444.36 3192.74,1440.56C3192.21,1437.86 3191.4,1435.84 3190.2,1434.32C3188.68,1432.37 3186.54,1431.2 3183.5,1430.55C3180.89,1429.99 3177.59,1429.81 3173.39,1429.79C3173.39,1429.79 3173.39,1425.68 3173.39,1425.68C3173.39,1425.68 3225.38,1422.86 3225.38,1422.86C3224.35,1442.13 3223.84,1458.89 3223.84,1476.43L3223.84,1560.43C3223.84,1560.86 3224.11,1561.25 3224.52,1561.4C3224.93,1561.56 3225.38,1561.44 3225.67,1561.11L3261.4,1520.04C3261.41,1520.04 3261.41,1520.03 3261.42,1520.03C3266.95,1513.39 3269.93,1507.54 3269.93,1502.56C3269.93,1495.09 3264.44,1491.1 3251.53,1490.12C3251.53,1490.12 3251.53,1486 3251.53,1486C3251.53,1486 3318.24,1486 3318.24,1486C3318.24,1486 3318.24,1490.18 3318.24,1490.18C3310.02,1491.28 3303.71,1493.19 3296.39,1497.11C3287.23,1501.96 3281.83,1506.53 3270.51,1518.92L3260.64,1529.86C3260.34,1530.2 3260.29,1530.69 3260.52,1531.08L3297.58,1594.82C3297.59,1594.82 3297.59,1594.82 3297.59,1594.83C3307.45,1611.36 3313.2,1616.37 3325.18,1619.13C3325.18,1619.13 3325.18,1623.12 3325.18,1623.12C3325.18,1623.12 3277.82,1623.12 3277.82,1623.12C3274.95,1616.9 3268.14,1603.29 3266.33,1599.93C3266.33,1599.93 3266.33,1599.92 3266.33,1599.92L3240.73,1554.05C3240.56,1553.76 3240.26,1553.56 3239.93,1553.53C3239.59,1553.49 3239.26,1553.62 3239.04,1553.87L3224.11,1570.67Z" style="fill:white;"/>
        <path d="M3466.75,1550C3467.03,1550 3467.3,1549.89 3467.5,1549.68C3467.69,1549.48 3467.8,1549.21 3467.79,1548.93C3467.25,1531.96 3465.89,1523.88 3462.93,1515.8C3462.93,1515.8 3462.92,1515.79 3462.92,1515.79C3453.96,1492.44 3434.44,1479.92 3406.75,1479.92C3365.62,1479.92 3338.78,1509.63 3338.78,1555.09C3338.78,1577.66 3345.7,1596.17 3357.96,1609.05C3370.24,1621.94 3387.9,1629.2 3409.42,1629.2C3437.31,1629.2 3455.46,1617.84 3469.01,1592.11C3469.26,1591.63 3469.1,1591.04 3468.64,1590.75L3461.98,1586.48C3461.73,1586.32 3461.43,1586.28 3461.14,1586.36C3460.86,1586.43 3460.62,1586.63 3460.49,1586.89C3450.82,1605.96 3435.44,1616.72 3417.42,1616.72C3401.56,1616.72 3389.64,1608.1 3382.11,1590.95C3377.44,1580.05 3375.59,1568.9 3375.27,1550C3375.27,1550 3466.75,1550 3466.75,1550ZM3465.67,1547.92L3374.22,1547.92C3373.94,1547.92 3373.67,1548.03 3373.47,1548.23C3373.28,1548.43 3373.17,1548.7 3373.18,1548.97C3373.44,1568.89 3375.35,1580.47 3380.19,1591.77C3380.19,1591.77 3380.2,1591.78 3380.2,1591.78C3388.13,1609.83 3400.74,1618.8 3417.42,1618.8C3435.87,1618.8 3451.72,1608.08 3461.82,1588.85C3461.82,1588.85 3466.71,1591.99 3466.71,1591.99C3453.64,1616.33 3436.15,1627.12 3409.42,1627.12C3388.54,1627.12 3371.39,1620.12 3359.47,1607.61C3347.54,1595.08 3340.86,1577.06 3340.86,1555.09C3340.86,1510.95 3366.81,1482 3406.75,1482C3433.46,1482 3452.33,1494.01 3460.97,1516.53C3463.81,1524.27 3465.12,1532.02 3465.67,1547.92L3465.67,1547.92ZM3373.45,1541.15C3373.42,1541.44 3373.52,1541.72 3373.72,1541.93C3373.92,1542.15 3374.19,1542.27 3374.48,1542.27L3433.42,1542.27C3433.7,1542.27 3433.97,1542.15 3434.16,1541.95C3434.36,1541.75 3434.47,1541.48 3434.46,1541.19C3433.92,1524.23 3432.83,1515.89 3429.87,1507.55C3429.86,1507.54 3429.86,1507.54 3429.86,1507.54C3424.6,1492.87 3416.75,1486.05 3405.95,1486.05C3394.09,1486.05 3384.89,1494.21 3379.1,1510.21C3379.1,1510.21 3379.1,1510.21 3379.1,1510.21C3376.14,1518.55 3374.52,1527.16 3373.45,1541.15ZM3375.61,1540.18C3376.67,1527.1 3378.24,1518.88 3381.06,1510.91C3386.47,1495.97 3394.87,1488.13 3405.95,1488.13C3415.95,1488.13 3423.03,1494.65 3427.9,1508.24C3430.74,1516.25 3431.8,1524.27 3432.34,1540.18L3375.61,1540.18Z" style="fill:white;"/>
        <path d="M3538.46,1481.48C3538.45,1481.2 3538.33,1480.92 3538.12,1480.73C3537.91,1480.54 3537.63,1480.43 3537.35,1480.45L3485.35,1483.92C3484.8,1483.96 3484.38,1484.41 3484.38,1484.96L3484.38,1491.36C3484.38,1491.93 3484.83,1492.39 3485.4,1492.4C3492.15,1492.5 3496.55,1492.94 3499.37,1494.91C3501.38,1496.31 3502.51,1498.52 3503.19,1501.9C3503.93,1505.56 3504.11,1510.52 3504.11,1517.23L3504.11,1591.09C3504.11,1598.13 3503.95,1603.29 3503.23,1607.07C3502.56,1610.57 3501.43,1612.82 3499.38,1614.24C3496.49,1616.22 3491.94,1616.62 3484.87,1616.72C3484.3,1616.73 3483.84,1617.19 3483.84,1617.76L3483.84,1624.16C3483.84,1624.74 3484.31,1625.2 3484.88,1625.2L3557.68,1625.2C3558.26,1625.2 3558.72,1624.74 3558.72,1624.16L3558.72,1617.76C3558.72,1617.19 3558.27,1616.73 3557.7,1616.72C3550.73,1616.62 3546.25,1616.27 3543.4,1614.31C3541.37,1612.92 3540.26,1610.69 3539.6,1607.19C3538.88,1603.4 3538.72,1598.21 3538.72,1591.09L3538.72,1537.76C3538.72,1529.13 3541.6,1518.4 3545.79,1510.81C3552.24,1499.71 3561.51,1493.74 3572.35,1493.74C3588.38,1493.74 3594.78,1505.56 3594.78,1533.49C3594.78,1533.49 3594.78,1591.09 3594.78,1591.09C3594.78,1598.05 3594.59,1603.17 3593.85,1606.95C3593.16,1610.45 3592.02,1612.72 3589.97,1614.17C3587.11,1616.18 3582.66,1616.62 3575.8,1616.72C3575.23,1616.73 3574.78,1617.19 3574.78,1617.76L3574.78,1624.16C3574.78,1624.74 3575.24,1625.2 3575.82,1625.2L3648.35,1625.2C3648.93,1625.2 3649.39,1624.74 3649.39,1624.16L3649.39,1617.76C3649.39,1617.19 3648.93,1616.73 3648.37,1616.72C3641.29,1616.62 3636.75,1616.22 3633.86,1614.24C3631.8,1612.82 3630.67,1610.57 3630.01,1607.07C3629.28,1603.29 3629.12,1598.13 3629.12,1591.09L3629.12,1531.89C3629.12,1515.63 3627.19,1506.69 3622.31,1498.56C3615.2,1485.99 3602.93,1479.92 3585.15,1479.92C3564.58,1479.92 3550.09,1487.46 3538.69,1504.4C3538.69,1504.4 3538.46,1481.48 3538.46,1481.48ZM3536.39,1482.61L3536.64,1507.9C3536.65,1508.37 3536.96,1508.77 3537.41,1508.9C3537.85,1509.02 3538.33,1508.83 3538.57,1508.44C3549.82,1490.12 3564.21,1482 3585.15,1482C3602.03,1482 3613.76,1487.66 3620.51,1499.61C3620.51,1499.61 3620.52,1499.62 3620.52,1499.63C3625.24,1507.5 3627.04,1516.16 3627.04,1531.89C3627.04,1531.89 3627.04,1591.09 3627.04,1591.09C3627.04,1598.3 3627.22,1603.59 3627.96,1607.47C3628.76,1611.64 3630.22,1614.26 3632.68,1615.95C3635.66,1618 3640.25,1618.63 3647.31,1618.78C3647.31,1618.78 3647.31,1623.12 3647.31,1623.12C3647.31,1623.12 3576.86,1623.12 3576.86,1623.12C3576.86,1623.12 3576.86,1618.78 3576.86,1618.78C3583.71,1618.63 3588.22,1617.95 3591.18,1615.87C3593.61,1614.15 3595.08,1611.51 3595.89,1607.35C3596.66,1603.48 3596.86,1598.22 3596.86,1591.09L3596.86,1533.49C3596.86,1503.82 3589.38,1491.65 3572.35,1491.65C3560.79,1491.65 3550.86,1497.94 3543.98,1509.77C3543.98,1509.78 3543.97,1509.78 3543.97,1509.79C3539.63,1517.66 3536.64,1528.8 3536.64,1537.76C3536.64,1537.76 3536.64,1591.09 3536.64,1591.09C3536.64,1598.38 3536.82,1603.7 3537.55,1607.58C3538.34,1611.76 3539.79,1614.37 3542.22,1616.03C3545.16,1618.05 3549.69,1618.64 3556.64,1618.78C3556.64,1618.78 3556.64,1623.12 3556.64,1623.12C3556.64,1623.12 3485.93,1623.12 3485.93,1623.12C3485.93,1623.12 3485.93,1618.78 3485.93,1618.78C3492.99,1618.63 3497.57,1618 3500.56,1615.95C3503.01,1614.26 3504.48,1611.64 3505.27,1607.47C3506.01,1603.59 3506.19,1598.3 3506.19,1591.09C3506.19,1591.09 3506.19,1517.23 3506.19,1517.23C3506.19,1510.34 3505.99,1505.25 3505.24,1501.49C3504.43,1497.45 3502.97,1494.87 3500.56,1493.2C3497.64,1491.16 3493.21,1490.49 3486.46,1490.34C3486.46,1490.34 3486.46,1485.93 3486.46,1485.93L3536.39,1482.61Z" style="fill:white;"/>
        <path d="M3816.08,1601.52C3801.71,1601.52 3792.95,1601.02 3787.77,1599.34C3785.43,1598.57 3783.87,1597.58 3782.93,1596.23C3781.98,1594.87 3781.66,1593.18 3781.66,1591.09C3781.66,1585.63 3784.72,1582.24 3793.02,1577.8C3801.48,1579.88 3808.92,1580.67 3816.62,1580.67C3832.61,1580.67 3847.23,1576.31 3857.53,1568.18C3867.89,1560 3873.93,1546.37 3873.93,1531.09C3873.93,1516.92 3869.79,1506.9 3859.66,1496.4C3859.66,1496.4 3883.28,1496.4 3883.28,1496.4C3883.86,1496.4 3884.33,1495.94 3884.33,1495.36L3884.33,1483.63C3884.33,1483.34 3884.21,1483.07 3884,1482.88C3883.8,1482.68 3883.52,1482.57 3883.24,1482.59C3864.6,1483.38 3855.28,1483.65 3854.75,1483.65C3848.14,1483.65 3844.97,1483.39 3836.51,1482.07C3826.84,1480.45 3821.47,1479.92 3815.28,1479.92C3797.52,1479.92 3782.89,1485.1 3772.69,1494.22C3762.45,1503.37 3756.64,1516.5 3756.64,1532.43C3756.64,1545.27 3760.78,1556.74 3767.89,1563.57C3770.94,1566.62 3773.99,1568.97 3781.76,1573.29C3781.76,1573.29 3769.66,1580.88 3769.66,1580.88C3769.66,1580.88 3769.66,1580.88 3769.66,1580.88C3758.26,1588.11 3755.58,1592.35 3755.58,1600.69C3755.58,1607.63 3758.34,1614.01 3763.05,1619C3765.77,1621.97 3768.26,1623.61 3773.54,1626.12C3767.78,1629.4 3763.64,1631.97 3760.68,1634.33C3757.27,1637.05 3755.37,1639.52 3754.32,1642.4C3753.44,1644.84 3753.18,1647.59 3753.18,1651.09C3753.18,1661.88 3758.81,1670.28 3769.53,1675.95C3779.98,1681.47 3795.34,1684.4 3815.02,1684.4C3836.84,1684.4 3854.89,1680.33 3867.82,1672.52C3867.82,1672.52 3867.83,1672.52 3867.83,1672.52C3879.86,1665.13 3887.26,1651.47 3887.26,1636.16C3887.26,1622.37 3881.14,1612.18 3870.66,1607.22C3870.65,1607.21 3870.64,1607.21 3870.62,1607.2C3860.39,1602.89 3851.51,1601.52 3828.08,1601.52L3816.08,1601.52ZM3816.08,1603.6L3828.08,1603.6C3851.03,1603.6 3859.76,1604.89 3869.78,1609.11C3879.56,1613.75 3885.18,1623.3 3885.18,1636.16C3885.18,1650.71 3878.18,1663.72 3866.74,1670.74C3854.08,1678.39 3836.39,1682.32 3815.02,1682.32C3795.76,1682.32 3780.72,1679.51 3770.5,1674.11C3760.56,1668.84 3755.26,1661.1 3755.26,1651.09C3755.26,1647.88 3755.47,1645.35 3756.28,1643.11C3757.21,1640.54 3758.94,1638.38 3761.98,1635.96C3765.17,1633.42 3769.76,1630.63 3776.33,1626.93C3776.67,1626.74 3776.87,1626.38 3776.86,1625.98C3776.84,1625.59 3776.61,1625.24 3776.25,1625.08C3770.03,1622.23 3767.43,1620.7 3764.58,1617.59C3764.58,1617.59 3764.58,1617.58 3764.57,1617.58C3760.22,1612.97 3757.66,1607.09 3757.66,1600.69C3757.66,1593.04 3760.31,1589.28 3770.77,1582.64C3770.77,1582.64 3784.37,1574.11 3784.37,1574.11C3784.68,1573.91 3784.87,1573.57 3784.86,1573.19C3784.85,1572.83 3784.64,1572.49 3784.32,1572.31C3775.66,1567.59 3772.5,1565.24 3769.35,1562.09C3769.35,1562.09 3769.34,1562.08 3769.34,1562.08C3762.58,1555.58 3758.72,1544.64 3758.72,1532.43C3758.72,1501.82 3781.01,1482 3815.28,1482C3821.37,1482 3826.66,1482.53 3836.18,1484.12C3836.18,1484.12 3836.18,1484.12 3836.19,1484.12C3844.8,1485.47 3848.03,1485.74 3854.75,1485.74C3855.27,1485.74 3864.27,1485.48 3882.24,1484.71C3882.24,1484.71 3882.24,1494.32 3882.24,1494.32C3882.24,1494.32 3857.15,1494.32 3857.15,1494.32C3856.73,1494.32 3856.35,1494.58 3856.18,1494.97C3856.03,1495.36 3856.12,1495.81 3856.42,1496.11C3867.39,1506.81 3871.84,1516.73 3871.84,1531.09C3871.84,1545.68 3866.14,1558.73 3856.24,1566.54C3846.27,1574.41 3832.1,1578.59 3816.62,1578.59C3808.97,1578.59 3801.58,1577.79 3793.14,1575.68C3792.89,1575.62 3792.62,1575.65 3792.4,1575.77C3782.82,1580.84 3779.58,1584.9 3779.58,1591.09C3779.58,1593.67 3780.05,1595.75 3781.22,1597.42C3782.38,1599.09 3784.24,1600.38 3787.13,1601.32C3792.42,1603.04 3801.39,1603.6 3816.08,1603.6ZM3820.35,1627.38L3787.54,1627.65C3787.47,1627.65 3787.39,1627.66 3787.32,1627.68C3781.04,1629.1 3777.97,1634.69 3777.97,1644.96C3777.97,1653.67 3780.25,1660.66 3784.77,1665.91C3791.48,1673.71 3803.21,1677.74 3820.08,1677.74C3846.96,1677.74 3863.26,1666.8 3863.26,1648.69C3863.26,1644.03 3862.11,1640.23 3859.68,1637.2C3857.28,1634.2 3853.59,1631.92 3848.41,1630.34C3841.74,1628.31 3832.54,1627.38 3820.35,1627.38ZM3820.35,1629.47C3832.27,1629.47 3841.28,1630.34 3847.8,1632.33C3852.5,1633.77 3855.88,1635.78 3858.06,1638.5C3860.21,1641.19 3861.18,1644.56 3861.18,1648.69C3861.18,1665.79 3845.47,1675.65 3820.08,1675.65C3803.99,1675.65 3792.75,1671.99 3786.35,1664.55C3782.13,1659.64 3780.06,1653.1 3780.06,1644.96C3780.06,1636.09 3782.29,1631.02 3787.67,1629.74C3787.67,1629.73 3820.35,1629.47 3820.35,1629.47L3820.35,1629.47ZM3789.71,1528.96C3789.71,1543.58 3791.91,1554.88 3796.1,1562.53C3800.44,1570.43 3806.89,1574.54 3815.28,1574.54C3825.5,1574.54 3832.53,1569.25 3836.5,1558.47C3839.06,1551.52 3840.33,1542.23 3840.33,1530.56C3840.33,1518.68 3839.06,1509.26 3836.5,1502.23C3832.53,1491.34 3825.5,1486.05 3815.28,1486.05C3798.54,1486.05 3789.71,1500.69 3789.71,1528.96ZM3791.79,1528.96C3791.79,1518.13 3793.08,1509.36 3795.67,1502.74C3799.43,1493.12 3805.97,1488.13 3815.28,1488.13C3824.59,1488.13 3830.93,1493.03 3834.54,1502.94C3837.03,1509.79 3838.24,1518.98 3838.24,1530.56C3838.24,1541.93 3837.03,1550.98 3834.54,1557.76C3830.93,1567.56 3824.59,1572.45 3815.28,1572.45C3807.68,1572.45 3801.86,1568.69 3797.93,1561.53C3793.86,1554.11 3791.79,1543.14 3791.79,1528.96Z" style="fill:white;"/>
        <path d="M4027.82,1550C4028.1,1550 4028.37,1549.89 4028.57,1549.68C4028.76,1549.48 4028.87,1549.21 4028.86,1548.93C4028.32,1531.96 4026.96,1523.88 4023.99,1515.8C4023.99,1515.8 4023.99,1515.79 4023.99,1515.79C4015.03,1492.44 3995.51,1479.92 3967.82,1479.92C3926.69,1479.92 3899.84,1509.63 3899.84,1555.09C3899.84,1577.66 3906.76,1596.17 3919.03,1609.05C3931.31,1621.94 3948.96,1629.2 3970.48,1629.2C3998.38,1629.2 4016.53,1617.84 4030.07,1592.11C4030.32,1591.63 4030.17,1591.04 4029.71,1590.75L4023.05,1586.48C4022.8,1586.32 4022.49,1586.28 4022.21,1586.36C4021.93,1586.43 4021.69,1586.63 4021.55,1586.89C4011.89,1605.96 3996.51,1616.72 3978.48,1616.72C3962.63,1616.72 3950.71,1608.1 3943.17,1590.95C3938.51,1580.05 3936.66,1568.9 3936.34,1550C3936.34,1550 4027.82,1550 4027.82,1550ZM4026.74,1547.92L3935.28,1547.92C3935,1547.92 3934.74,1548.03 3934.54,1548.23C3934.35,1548.43 3934.24,1548.7 3934.24,1548.97C3934.51,1568.89 3936.41,1580.47 3941.26,1591.77C3941.26,1591.77 3941.26,1591.78 3941.26,1591.78C3949.19,1609.83 3961.8,1618.8 3978.48,1618.8C3996.93,1618.8 4012.79,1608.08 4022.88,1588.85C4022.88,1588.85 4027.78,1591.99 4027.78,1591.99C4014.7,1616.33 3997.22,1627.12 3970.48,1627.12C3949.6,1627.12 3932.45,1620.12 3920.54,1607.61C3908.6,1595.08 3901.93,1577.06 3901.93,1555.09C3901.93,1510.95 3927.88,1482 3967.82,1482C3994.52,1482 4013.4,1494.01 4022.04,1516.53C4024.88,1524.27 4026.19,1532.02 4026.74,1547.92L4026.74,1547.92ZM3934.51,1541.15C3934.49,1541.44 3934.59,1541.72 3934.79,1541.93C3934.98,1542.15 3935.26,1542.27 3935.55,1542.27L3994.48,1542.27C3994.76,1542.27 3995.04,1542.15 3995.23,1541.95C3995.43,1541.75 3995.53,1541.48 3995.52,1541.19C3994.99,1524.23 3993.89,1515.89 3990.93,1507.55C3990.93,1507.54 3990.93,1507.54 3990.93,1507.54C3985.67,1492.87 3977.82,1486.05 3967.02,1486.05C3955.16,1486.05 3945.96,1494.21 3940.17,1510.21C3940.17,1510.21 3940.17,1510.21 3940.17,1510.21C3937.21,1518.55 3935.59,1527.16 3934.51,1541.15ZM3936.68,1540.18C3937.73,1527.1 3939.3,1518.88 3942.13,1510.91C3947.54,1495.97 3955.94,1488.13 3967.02,1488.13C3977.02,1488.13 3984.1,1494.65 3988.97,1508.24C3991.81,1516.25 3992.87,1524.27 3993.41,1540.18L3936.68,1540.18Z" style="fill:white;"/>
        <path d="M4099.52,1481.48C4099.52,1481.2 4099.4,1480.92 4099.19,1480.73C4098.98,1480.54 4098.7,1480.43 4098.41,1480.45L4046.41,1483.92C4045.87,1483.96 4045.44,1484.41 4045.44,1484.96L4045.44,1491.36C4045.44,1491.93 4045.9,1492.39 4046.47,1492.4C4053.22,1492.5 4057.61,1492.94 4060.44,1494.91C4062.45,1496.31 4063.58,1498.52 4064.26,1501.9C4064.99,1505.56 4065.18,1510.52 4065.18,1517.23C4065.18,1517.23 4065.18,1591.09 4065.18,1591.09C4065.18,1598.13 4065.02,1603.29 4064.29,1607.07C4063.63,1610.57 4062.5,1612.82 4060.44,1614.24C4057.55,1616.22 4053.01,1616.62 4045.93,1616.72C4045.37,1616.73 4044.91,1617.19 4044.91,1617.76L4044.91,1624.16C4044.91,1624.74 4045.37,1625.2 4045.95,1625.2L4118.75,1625.2C4119.32,1625.2 4119.79,1624.74 4119.79,1624.16L4119.79,1617.76C4119.79,1617.19 4119.33,1616.73 4118.77,1616.72C4111.8,1616.62 4107.32,1616.27 4104.47,1614.31C4102.44,1612.92 4101.33,1610.69 4100.67,1607.19C4099.95,1603.4 4099.79,1598.21 4099.79,1591.09L4099.79,1537.76C4099.79,1529.13 4102.67,1518.4 4106.85,1510.81C4113.31,1499.71 4122.58,1493.74 4133.42,1493.74C4149.45,1493.74 4155.84,1505.56 4155.84,1533.49C4155.84,1533.49 4155.84,1591.09 4155.84,1591.09C4155.84,1598.05 4155.66,1603.17 4154.92,1606.95C4154.23,1610.45 4153.09,1612.72 4151.04,1614.17C4148.18,1616.18 4143.72,1616.62 4136.87,1616.72C4136.3,1616.73 4135.84,1617.19 4135.84,1617.76L4135.84,1624.16C4135.84,1624.74 4136.31,1625.2 4136.88,1625.2L4209.42,1625.2C4209.99,1625.2 4210.46,1624.74 4210.46,1624.16L4210.46,1617.76C4210.46,1617.19 4210,1616.73 4209.43,1616.72C4202.36,1616.62 4197.82,1616.22 4194.92,1614.24C4192.87,1612.82 4191.74,1610.57 4191.07,1607.07C4190.35,1603.29 4190.19,1598.13 4190.19,1591.09L4190.19,1531.89C4190.19,1515.63 4188.26,1506.69 4183.38,1498.56C4176.27,1485.99 4163.99,1479.92 4146.22,1479.92C4125.64,1479.92 4111.15,1487.46 4099.76,1504.4C4099.76,1504.4 4099.52,1481.48 4099.52,1481.48ZM4097.45,1482.61L4097.71,1507.9C4097.71,1508.37 4098.02,1508.77 4098.47,1508.9C4098.92,1509.02 4099.39,1508.83 4099.64,1508.44C4110.89,1490.12 4125.28,1482 4146.22,1482C4163.1,1482 4174.82,1487.66 4181.58,1499.61C4181.58,1499.61 4181.59,1499.62 4181.59,1499.63C4186.31,1507.5 4188.11,1516.16 4188.11,1531.89C4188.11,1531.89 4188.11,1591.09 4188.11,1591.09C4188.11,1598.3 4188.29,1603.59 4189.03,1607.47C4189.82,1611.64 4191.29,1614.26 4193.74,1615.95C4196.73,1618 4201.31,1618.63 4208.38,1618.78C4208.38,1618.78 4208.38,1623.12 4208.38,1623.12C4208.38,1623.12 4137.93,1623.12 4137.93,1623.12C4137.93,1623.12 4137.93,1618.78 4137.93,1618.78C4144.78,1618.63 4149.28,1617.95 4152.24,1615.87C4154.67,1614.15 4156.15,1611.51 4156.96,1607.35C4157.72,1603.48 4157.93,1598.22 4157.93,1591.09L4157.93,1533.49C4157.93,1503.82 4150.45,1491.65 4133.42,1491.65C4121.86,1491.65 4111.93,1497.94 4105.05,1509.77C4105.05,1509.78 4105.04,1509.78 4105.04,1509.79C4100.69,1517.66 4097.71,1528.8 4097.71,1537.76C4097.71,1537.76 4097.71,1591.09 4097.71,1591.09C4097.71,1598.38 4097.89,1603.7 4098.62,1607.58C4099.41,1611.76 4100.86,1614.37 4103.29,1616.03C4106.23,1618.05 4110.75,1618.64 4117.71,1618.78C4117.71,1618.78 4117.71,1623.12 4117.71,1623.12C4117.71,1623.12 4046.99,1623.12 4046.99,1623.12C4046.99,1623.12 4046.99,1618.78 4046.99,1618.78C4054.05,1618.63 4058.64,1618 4061.62,1615.95C4064.08,1614.26 4065.54,1611.64 4066.34,1607.47C4067.08,1603.59 4067.26,1598.3 4067.26,1591.09L4067.26,1517.23C4067.26,1510.34 4067.06,1505.25 4066.3,1501.49C4065.49,1497.45 4064.03,1494.87 4061.63,1493.2C4058.71,1491.16 4054.27,1490.49 4047.53,1490.34C4047.53,1490.34 4047.53,1485.93 4047.53,1485.93L4097.45,1482.61Z" style="fill:white;"/>
        <path d="M4353.95,1550C4354.23,1550 4354.5,1549.89 4354.7,1549.68C4354.89,1549.48 4355,1549.21 4354.99,1548.93C4354.45,1531.96 4353.09,1523.88 4350.13,1515.8C4350.13,1515.8 4350.12,1515.79 4350.12,1515.79C4341.16,1492.44 4321.64,1479.92 4293.95,1479.92C4252.82,1479.92 4225.98,1509.63 4225.98,1555.09C4225.98,1577.66 4232.9,1596.17 4245.16,1609.05C4257.44,1621.94 4275.1,1629.2 4296.62,1629.2C4324.51,1629.2 4342.66,1617.84 4356.2,1592.11C4356.46,1591.63 4356.3,1591.04 4355.85,1590.75L4349.18,1586.48C4348.93,1586.32 4348.63,1586.28 4348.34,1586.36C4348.06,1586.43 4347.82,1586.63 4347.69,1586.89C4338.02,1605.96 4322.64,1616.72 4304.62,1616.72C4288.76,1616.72 4276.84,1608.1 4269.31,1590.95C4264.64,1580.05 4262.79,1568.9 4262.47,1550C4262.47,1550 4353.95,1550 4353.95,1550ZM4352.87,1547.92L4261.42,1547.92C4261.14,1547.92 4260.87,1548.03 4260.68,1548.23C4260.48,1548.43 4260.37,1548.7 4260.38,1548.97C4260.64,1568.89 4262.55,1580.47 4267.39,1591.77C4267.39,1591.77 4267.4,1591.78 4267.4,1591.78C4275.33,1609.83 4287.94,1618.8 4304.62,1618.8C4323.07,1618.8 4338.92,1608.08 4349.02,1588.85C4349.02,1588.85 4353.91,1591.99 4353.91,1591.99C4340.84,1616.33 4323.35,1627.12 4296.62,1627.12C4275.74,1627.12 4258.59,1620.12 4246.67,1607.61C4234.74,1595.08 4228.06,1577.06 4228.06,1555.09C4228.06,1510.95 4254.01,1482 4293.95,1482C4320.66,1482 4339.53,1494.01 4348.17,1516.53C4351.01,1524.27 4352.32,1532.02 4352.87,1547.92L4352.87,1547.92ZM4260.65,1541.15C4260.62,1541.44 4260.72,1541.72 4260.92,1541.93C4261.12,1542.15 4261.39,1542.27 4261.68,1542.27L4320.62,1542.27C4320.9,1542.27 4321.17,1542.15 4321.36,1541.95C4321.56,1541.75 4321.67,1541.48 4321.66,1541.19C4321.12,1524.23 4320.03,1515.89 4317.07,1507.55C4317.06,1507.54 4317.06,1507.54 4317.06,1507.54C4311.8,1492.87 4303.95,1486.05 4293.15,1486.05C4281.29,1486.05 4272.09,1494.21 4266.3,1510.21C4266.3,1510.21 4266.3,1510.21 4266.3,1510.21C4263.34,1518.55 4261.72,1527.16 4260.65,1541.15ZM4262.81,1540.18C4263.87,1527.1 4265.44,1518.88 4268.26,1510.91C4273.67,1495.97 4282.07,1488.13 4293.15,1488.13C4303.15,1488.13 4310.23,1494.65 4315.1,1508.24C4317.94,1516.25 4319,1524.27 4319.54,1540.18L4262.81,1540.18Z" style="fill:white;"/>
        <path d="M4372.81,1483.92C4372.27,1483.96 4371.84,1484.41 4371.84,1484.96L4371.84,1491.36C4371.84,1491.94 4372.31,1492.4 4372.88,1492.4C4379.31,1492.4 4383.54,1492.81 4386.29,1494.78C4388.27,1496.2 4389.4,1498.44 4390.09,1501.85C4390.84,1505.54 4391.04,1510.52 4391.04,1517.23C4391.04,1517.23 4391.04,1591.09 4391.04,1591.09C4391.04,1598.13 4390.88,1603.29 4390.16,1607.07C4389.49,1610.57 4388.36,1612.82 4386.31,1614.24C4383.42,1616.22 4378.87,1616.62 4371.8,1616.72C4371.23,1616.73 4370.78,1617.19 4370.78,1617.76L4370.78,1624.16C4370.78,1624.74 4371.24,1625.2 4371.82,1625.2L4445.95,1625.2C4446.53,1625.2 4446.99,1624.74 4446.99,1624.16L4446.99,1617.76C4446.99,1617.2 4446.55,1616.74 4445.99,1616.72C4441.14,1616.52 4437.4,1616.27 4434.52,1615.62C4431.87,1615.02 4429.99,1614.09 4428.69,1612.47C4427.64,1611.16 4426.97,1609.41 4426.52,1607.09C4425.79,1603.35 4425.66,1598.2 4425.66,1591.09L4425.66,1541.76C4425.66,1529.45 4427.73,1520.54 4431.92,1512.68C4436.22,1505.35 4441.17,1500.94 4445.97,1500.67C4445.98,1500.67 4446.48,1500.67 4446.48,1500.67C4447.57,1500.67 4448.43,1500.79 4449.16,1501.16C4449.98,1501.58 4450.59,1502.33 4451.18,1503.49C4451.87,1504.85 4452.49,1506.71 4453.22,1509.25C4453.22,1509.25 4453.22,1509.26 4453.22,1509.26C4454.23,1512.6 4455.72,1514.9 4457.9,1516.39C4460.04,1517.85 4462.89,1518.54 4466.75,1518.54C4478.6,1518.54 4486.99,1511.39 4486.99,1501.23C4486.99,1489.21 4476.98,1479.92 4463.28,1479.92C4448.67,1479.92 4435.45,1489.24 4424.86,1507.13C4424.86,1507.13 4424.86,1503.09 4424.86,1503.09C4424.86,1497.75 4424.59,1491.6 4424.06,1481.44C4424.04,1481.16 4423.92,1480.9 4423.71,1480.71C4423.5,1480.53 4423.22,1480.43 4422.94,1480.45L4372.81,1483.92ZM4446.59,1498.59C4446.56,1498.59 4446.52,1498.59 4446.48,1498.59L4445.9,1498.59C4440.57,1498.87 4434.88,1503.51 4430.12,1511.63C4430.11,1511.65 4430.1,1511.66 4430.1,1511.67C4425.76,1519.8 4423.57,1529.02 4423.57,1541.76C4423.57,1541.76 4423.57,1591.09 4423.57,1591.09C4423.57,1598.38 4423.73,1603.65 4424.47,1607.49C4425,1610.21 4425.83,1612.24 4427.07,1613.78C4428.64,1615.73 4430.86,1616.92 4434.06,1617.65C4436.83,1618.28 4440.38,1618.56 4444.91,1618.76C4444.91,1618.76 4444.91,1623.12 4444.91,1623.12C4444.91,1623.12 4372.86,1623.12 4372.86,1623.12C4372.86,1623.12 4372.86,1618.78 4372.86,1618.78C4379.92,1618.63 4384.51,1618 4387.49,1615.95C4389.94,1614.26 4391.41,1611.64 4392.21,1607.47C4392.95,1603.59 4393.12,1598.3 4393.12,1591.09L4393.12,1517.23C4393.12,1510.34 4392.9,1505.22 4392.13,1501.44C4391.31,1497.38 4389.85,1494.77 4387.51,1493.09C4384.65,1491.04 4380.36,1490.38 4373.93,1490.32L4373.93,1485.93L4422.03,1482.61C4422.53,1492.09 4422.78,1497.96 4422.78,1503.09L4422.78,1511.09C4422.78,1511.57 4423.1,1511.99 4423.56,1512.1C4424.02,1512.22 4424.51,1512.01 4424.73,1511.59C4435.17,1492.28 4448.41,1482 4463.28,1482C4475.72,1482 4484.91,1490.32 4484.91,1501.23C4484.91,1510.27 4477.3,1516.45 4466.75,1516.45C4463.41,1516.45 4460.93,1515.93 4459.07,1514.67C4457.25,1513.42 4456.07,1511.46 4455.22,1508.67C4454.45,1505.97 4453.77,1503.99 4453.04,1502.55C4452.21,1500.9 4451.27,1499.9 4450.11,1499.31C4449.12,1498.8 4447.96,1498.59 4446.48,1498.59C4446.52,1498.59 4446.56,1498.59 4446.59,1498.59ZM4446.66,1498.6C4447.15,1498.68 4447.53,1499.11 4447.53,1499.63C4447.53,1500.2 4447.06,1500.67 4446.48,1500.67C4446.48,1500.67 4447.71,1498.78 4446.66,1498.6ZM4446.61,1498.59L4446.65,1498.6L4446.64,1498.6L4446.61,1498.59Z" style="fill:white;"/>
        <path d="M4632.86,1616.96C4632.86,1616.39 4632.4,1615.93 4631.83,1615.92C4628.48,1615.87 4625.76,1615.77 4623.55,1615.4C4621.51,1615.07 4619.93,1614.52 4618.73,1613.51C4617.28,1612.3 4616.4,1610.45 4615.81,1607.67C4614.85,1603.12 4614.73,1596.22 4614.73,1585.76C4614.73,1583.9 4614.73,1578.85 4614.99,1571.4C4614.99,1571.39 4614.99,1571.38 4614.99,1571.37L4615.53,1524.97C4615.53,1524.97 4615.53,1524.96 4615.53,1524.96C4615.53,1508.04 4612.17,1498.24 4604.81,1491.14C4604.8,1491.14 4604.8,1491.14 4604.79,1491.13C4596.65,1483.53 4583.36,1479.92 4564.62,1479.92C4546.25,1479.92 4531.68,1483.19 4520.34,1490.21C4509.58,1496.83 4503.31,1506.24 4503.31,1515.89C4503.31,1524.41 4509.96,1529.2 4523.02,1529.2C4528.92,1529.2 4533.06,1528.22 4535.8,1526.04C4538.6,1523.82 4540.03,1520.33 4540.32,1515.16C4541.1,1505.28 4541.85,1501.11 4544.45,1496.69C4544.45,1496.69 4544.45,1496.69 4544.45,1496.68C4547.99,1490.62 4553.32,1488.13 4561.42,1488.13C4565.99,1488.13 4569.61,1488.81 4572.42,1490.53C4575.67,1492.51 4577.81,1495.88 4579.17,1501.06C4580.6,1506.49 4581.18,1513.85 4581.18,1523.63L4581.18,1539.97C4565.02,1540.8 4551.14,1542.64 4538.3,1545C4538.29,1545 4538.29,1545 4538.28,1545.01C4509.13,1550.73 4494.78,1565.26 4494.78,1588.69C4494.78,1601.01 4498.84,1611.07 4506.13,1618.05C4513.4,1625.01 4523.91,1628.93 4536.88,1628.93C4553.84,1628.93 4568.04,1622.68 4581.65,1608.68C4582.11,1613.33 4582.71,1616.87 4583.58,1619.54C4584.66,1622.89 4586.19,1624.95 4588.28,1626.16C4590.04,1627.18 4592.24,1627.6 4595.02,1627.6C4601.97,1627.6 4616.15,1626.27 4631.94,1624.39C4632.46,1624.33 4632.86,1623.89 4632.86,1623.36L4632.86,1616.96ZM4630.78,1617.98L4630.78,1622.43C4615.46,1624.24 4601.79,1625.52 4595.02,1625.52C4592.67,1625.52 4590.81,1625.22 4589.32,1624.36C4587.61,1623.37 4586.45,1621.63 4585.56,1618.9C4584.59,1615.91 4583.98,1611.8 4583.52,1606.21C4583.49,1605.8 4583.21,1605.44 4582.82,1605.31C4582.43,1605.17 4582,1605.28 4581.72,1605.59C4568.08,1620.27 4553.93,1626.85 4536.88,1626.85C4524.53,1626.85 4514.5,1623.18 4507.57,1616.54C4500.66,1609.92 4496.86,1600.37 4496.86,1588.69C4496.86,1566.26 4510.77,1552.53 4538.68,1547.05C4551.7,1544.66 4565.79,1542.8 4582.27,1542C4582.82,1541.97 4583.26,1541.52 4583.26,1540.96L4583.26,1523.63C4583.26,1513.62 4582.65,1506.09 4581.19,1500.53C4579.65,1494.71 4577.16,1490.98 4573.51,1488.75C4570.41,1486.86 4566.44,1486.05 4561.42,1486.05C4552.44,1486.05 4546.58,1488.9 4542.65,1495.63C4539.92,1500.27 4539.06,1504.63 4538.24,1515.01C4538.24,1515.02 4538.24,1515.03 4538.24,1515.04C4538,1519.46 4536.9,1522.51 4534.5,1524.41C4532.04,1526.37 4528.31,1527.12 4523.02,1527.12C4511.54,1527.12 4505.39,1523.38 4505.39,1515.89C4505.39,1506.88 4511.38,1498.16 4521.43,1491.98C4521.43,1491.98 4521.43,1491.98 4521.43,1491.98C4532.49,1485.13 4546.71,1482 4564.62,1482C4582.67,1482 4595.51,1485.33 4603.37,1492.65C4610.39,1499.42 4613.44,1508.82 4613.44,1524.95L4612.91,1571.34C4612.64,1578.82 4612.64,1583.89 4612.64,1585.76C4612.64,1596.42 4612.79,1603.46 4613.78,1608.11C4614.48,1611.46 4615.65,1613.65 4617.39,1615.11C4620.05,1617.33 4624.21,1617.84 4630.78,1617.98ZM4583.26,1567.63L4583.26,1547.09C4583.26,1546.8 4583.14,1546.53 4582.93,1546.33C4582.71,1546.13 4582.43,1546.03 4582.14,1546.06C4558.56,1547.84 4544.19,1552.28 4536.44,1560.89C4531.19,1566.72 4528.91,1574.47 4528.91,1584.69C4528.91,1604.35 4537.99,1617.2 4551.55,1617.2C4562.6,1617.2 4573.11,1610.33 4578.36,1599.01C4581.87,1591.98 4583.26,1583.05 4583.26,1567.63ZM4581.18,1567.63C4581.18,1582.6 4579.9,1591.27 4576.48,1598.09C4576.48,1598.1 4576.48,1598.11 4576.47,1598.12C4571.59,1608.66 4561.83,1615.12 4551.55,1615.12C4538.98,1615.12 4530.99,1602.91 4530.99,1584.69C4530.99,1575.08 4533.06,1567.77 4537.99,1562.29C4545.37,1554.08 4559.01,1550 4581.18,1548.22C4581.18,1548.22 4581.18,1567.63 4581.18,1567.63Z" style="fill:white;"/>
        <path d="M4698.73,1494.54L4729.95,1494.54C4730.53,1494.54 4730.99,1494.07 4730.99,1493.49L4730.99,1484.96C4730.99,1484.38 4730.53,1483.92 4729.95,1483.92L4698.73,1483.92C4698.73,1460.48 4699,1452.31 4699.52,1441.54C4699.54,1441.24 4699.42,1440.95 4699.2,1440.74C4698.98,1440.53 4698.68,1440.43 4698.38,1440.46L4685.05,1441.79C4684.58,1441.84 4684.21,1442.18 4684.12,1442.64C4681.76,1455.8 4679.14,1463.43 4674.41,1470.8C4674.41,1470.8 4674.41,1470.8 4674.4,1470.8C4668.48,1480.08 4661.25,1483.94 4649.9,1484.45C4649.35,1484.48 4648.91,1484.94 4648.91,1485.49L4648.91,1493.49C4648.91,1494.07 4649.37,1494.54 4649.95,1494.54L4664.11,1494.54C4664.11,1494.54 4664.11,1576.69 4664.11,1576.69C4664.11,1600.72 4664.97,1607.19 4668.21,1613.94C4668.22,1613.96 4668.23,1613.98 4668.23,1613.99C4673.46,1623.62 4684.43,1629.2 4699.28,1629.2C4713.4,1629.2 4725.35,1624.86 4736.48,1615.63C4736.87,1615.31 4736.97,1614.76 4736.73,1614.32L4732.99,1607.65C4732.84,1607.38 4732.58,1607.2 4732.28,1607.14C4731.98,1607.08 4731.67,1607.16 4731.43,1607.35C4724.99,1612.5 4718.83,1615.38 4713.42,1615.38C4708.23,1615.38 4703.31,1611.65 4701.33,1606.21C4699.49,1600.95 4698.73,1594.12 4698.73,1582.56L4698.73,1494.54ZM4697.68,1492.45C4697.11,1492.45 4696.64,1492.92 4696.64,1493.49L4696.64,1582.56C4696.64,1594.46 4697.47,1601.49 4699.37,1606.9C4699.37,1606.91 4699.37,1606.91 4699.37,1606.92C4701.66,1613.21 4707.41,1617.47 4713.42,1617.47C4718.93,1617.47 4725.22,1614.76 4731.77,1609.73C4731.77,1609.73 4734.48,1614.57 4734.48,1614.57C4723.94,1623.1 4712.61,1627.12 4699.28,1627.12C4685.36,1627.12 4675,1622.05 4670.08,1613.03C4666.93,1606.44 4666.19,1600.11 4666.19,1576.69L4666.19,1493.49C4666.19,1492.92 4665.73,1492.45 4665.15,1492.45L4650.99,1492.45C4650.99,1492.45 4650.99,1486.48 4650.99,1486.48C4662.54,1485.75 4670,1481.57 4676.16,1471.92C4680.93,1464.5 4683.64,1456.83 4686.03,1443.79C4686.03,1443.79 4697.38,1442.65 4697.38,1442.65C4696.89,1453.03 4696.64,1461.57 4696.64,1484.96C4696.64,1485.54 4697.11,1486 4697.68,1486L4728.91,1486C4728.91,1486 4728.91,1492.45 4728.91,1492.45C4728.91,1492.45 4697.68,1492.45 4697.68,1492.45Z" style="fill:white;"/>
        <path d="M4747.84,1555.63C4747.84,1576.43 4754.62,1595.61 4766.51,1608.86C4777.88,1621.59 4797.1,1629.47 4817.42,1629.47C4838.8,1629.47 4858.54,1621.33 4870.99,1607.53C4870.99,1607.52 4870.99,1607.52 4870.99,1607.52C4882.07,1595.09 4888.86,1575.1 4888.86,1554.03C4888.86,1531.59 4881.94,1513.09 4869.74,1500.18C4857.52,1487.25 4840,1479.92 4818.75,1479.92C4798.17,1479.92 4779.77,1486.99 4768.13,1499.17C4768.13,1499.18 4768.13,1499.18 4768.12,1499.18C4755.43,1512.69 4747.84,1533.48 4747.84,1555.63ZM4749.93,1555.63C4749.93,1534.05 4757.27,1513.77 4769.64,1500.61C4780.93,1488.8 4798.8,1482 4818.75,1482C4839.36,1482 4856.38,1489.07 4868.23,1501.61C4880.1,1514.17 4886.78,1532.2 4886.78,1554.03C4886.78,1574.55 4880.23,1594.03 4869.44,1606.13C4857.36,1619.53 4838.17,1627.38 4817.42,1627.38C4797.73,1627.38 4779.08,1619.8 4768.06,1607.47C4768.06,1607.47 4768.06,1607.47 4768.06,1607.46C4756.48,1594.57 4749.93,1575.88 4749.93,1555.63ZM4783.84,1554.29C4783.84,1577.57 4786.57,1594.72 4792.15,1606.05C4797.88,1617.69 4806.6,1623.34 4818.48,1623.34C4830.5,1623.34 4839.22,1617.96 4844.91,1606.56C4850.47,1595.46 4853.12,1578.51 4853.12,1555.09C4853.12,1531.55 4850.4,1514.4 4844.78,1503.13C4839.02,1491.56 4830.23,1486.05 4818.22,1486.05C4806.86,1486.05 4797.18,1491.88 4792.47,1502.12C4786.57,1513.68 4783.84,1530.89 4783.84,1554.29ZM4785.93,1554.29C4785.93,1531.31 4788.53,1514.39 4794.34,1503.04C4794.35,1503.02 4794.36,1503.01 4794.36,1503C4798.72,1493.51 4807.7,1488.13 4818.22,1488.13C4829.4,1488.13 4837.55,1493.29 4842.92,1504.06C4848.43,1515.12 4851.04,1531.97 4851.04,1555.09C4851.04,1578.08 4848.5,1594.73 4843.05,1605.63C4837.75,1616.23 4829.66,1621.25 4818.48,1621.25C4807.43,1621.25 4799.35,1615.96 4794.02,1605.13C4788.53,1594 4785.93,1577.15 4785.93,1554.29Z" style="fill:white;"/>
        <path d="M4907.21,1483.92C4906.66,1483.96 4906.24,1484.41 4906.24,1484.96L4906.24,1491.36C4906.24,1491.94 4906.71,1492.4 4907.28,1492.4C4913.7,1492.4 4917.94,1492.81 4920.69,1494.78C4922.66,1496.2 4923.8,1498.44 4924.49,1501.85C4925.24,1505.54 4925.44,1510.52 4925.44,1517.23L4925.44,1591.09C4925.44,1598.13 4925.28,1603.29 4924.56,1607.07C4923.89,1610.57 4922.77,1612.82 4920.71,1614.24C4917.82,1616.22 4913.27,1616.62 4906.2,1616.72C4905.63,1616.73 4905.18,1617.19 4905.18,1617.76L4905.18,1624.16C4905.18,1624.74 4905.64,1625.2 4906.22,1625.2L4980.35,1625.2C4980.93,1625.2 4981.39,1624.74 4981.39,1624.16L4981.39,1617.76C4981.39,1617.2 4980.95,1616.74 4980.39,1616.72C4975.54,1616.52 4971.8,1616.27 4968.92,1615.62C4966.27,1615.02 4964.39,1614.09 4963.1,1612.47C4962.04,1611.16 4961.37,1609.41 4960.92,1607.09C4960.19,1603.35 4960.06,1598.2 4960.06,1591.09L4960.06,1541.76C4960.06,1529.45 4962.14,1520.54 4966.32,1512.68C4970.62,1505.35 4975.57,1500.94 4980.37,1500.67C4980.38,1500.67 4980.88,1500.67 4980.88,1500.67C4981.97,1500.67 4982.83,1500.79 4983.56,1501.16C4984.38,1501.58 4984.99,1502.33 4985.58,1503.49C4986.27,1504.85 4986.89,1506.71 4987.61,1509.25C4987.62,1509.25 4987.62,1509.26 4987.62,1509.26C4988.64,1512.6 4990.12,1514.9 4992.3,1516.39C4994.44,1517.85 4997.29,1518.54 5001.15,1518.54C5013,1518.54 5021.39,1511.39 5021.39,1501.23C5021.39,1489.21 5011.38,1479.92 4997.68,1479.92C4983.07,1479.92 4969.85,1489.24 4959.26,1507.13C4959.26,1507.13 4959.26,1503.09 4959.26,1503.09C4959.26,1497.75 4958.99,1491.6 4958.46,1481.44C4958.44,1481.16 4958.32,1480.9 4958.11,1480.71C4957.9,1480.53 4957.62,1480.43 4957.35,1480.45L4907.21,1483.92ZM4980.99,1498.59C4980.96,1498.59 4980.92,1498.59 4980.88,1498.59L4980.3,1498.59C4974.97,1498.87 4969.28,1503.51 4964.52,1511.63C4964.51,1511.65 4964.5,1511.66 4964.5,1511.67C4960.16,1519.8 4957.98,1529.02 4957.98,1541.76C4957.98,1541.76 4957.98,1591.09 4957.98,1591.09C4957.98,1598.38 4958.13,1603.65 4958.87,1607.49C4959.4,1610.21 4960.23,1612.24 4961.47,1613.78C4963.04,1615.73 4965.26,1616.92 4968.46,1617.65C4971.23,1618.28 4974.78,1618.56 4979.31,1618.76C4979.31,1618.76 4979.31,1623.12 4979.31,1623.12C4979.31,1623.12 4907.26,1623.12 4907.26,1623.12C4907.26,1623.12 4907.26,1618.78 4907.26,1618.78C4914.32,1618.63 4918.91,1618 4921.89,1615.95C4924.35,1614.26 4925.81,1611.64 4926.61,1607.47C4927.35,1603.59 4927.53,1598.3 4927.53,1591.09C4927.53,1591.09 4927.53,1517.23 4927.53,1517.23C4927.53,1510.34 4927.3,1505.22 4926.53,1501.44C4925.71,1497.38 4924.25,1494.77 4921.91,1493.09C4919.05,1491.04 4914.76,1490.38 4908.32,1490.32L4908.32,1485.93L4956.43,1482.61C4956.93,1492.09 4957.18,1497.96 4957.18,1503.09L4957.18,1511.09C4957.18,1511.57 4957.5,1511.99 4957.96,1512.1C4958.42,1512.22 4958.91,1512.01 4959.13,1511.59C4969.57,1492.28 4982.81,1482 4997.68,1482C5010.12,1482 5019.31,1490.32 5019.31,1501.23C5019.31,1510.27 5011.7,1516.45 5001.15,1516.45C4997.81,1516.45 4995.33,1515.93 4993.47,1514.67C4991.65,1513.42 4990.47,1511.46 4989.62,1508.67C4988.85,1505.97 4988.17,1503.99 4987.44,1502.55C4986.61,1500.9 4985.67,1499.9 4984.51,1499.31C4983.52,1498.8 4982.36,1498.59 4980.88,1498.59C4980.92,1498.59 4980.96,1498.59 4980.99,1498.59ZM4981.06,1498.6C4981.55,1498.68 4981.93,1499.11 4981.93,1499.63C4981.93,1500.2 4981.46,1500.67 4980.88,1500.67C4980.88,1500.67 4982.11,1498.78 4981.06,1498.6ZM4981.01,1498.59L4981.05,1498.6L4981.04,1498.6L4981.01,1498.59Z" style="fill:white;"/>
    </g>
</svg>
