<?xml version="1.0" encoding="UTF-8" standalone="no"?>
<!DOCTYPE svg PUBLIC "-//W3C//DTD SVG 1.1//EN" "http://www.w3.org/Graphics/SVG/1.1/DTD/svg11.dtd">
<svg width="100%" height="100%" viewBox="0 0 2353 2873" version="1.1" xmlns="http://www.w3.org/2000/svg" xmlns:xlink="http://www.w3.org/1999/xlink" xml:space="preserve" xmlns:serif="http://www.serif.com/" style="fill-rule:evenodd;clip-rule:evenodd;stroke-linejoin:round;stroke-miterlimit:2;">
    <g transform="matrix(1.33333,0,0,1.33333,-5075.78,-1957.93)">
        <g transform="matrix(4.16667,0,0,4.16667,-10708.1,-9926.13)">
            <path d="M3849.16,2745.71C3844.65,2753.83 3846,2763.61 3851.81,2770.2L3654.34,3140.78C3653.3,3143.69 3657.27,3145.7 3659,3143.13L3864.4,2777.16C3873.05,2778.57 3882.03,2774.53 3886.53,2766.43C3892.25,2756.11 3888.52,2743.11 3878.2,2737.38C3867.88,2731.66 3854.88,2735.39 3849.16,2745.71Z" style="fill:rgb(89,74,66);fill-rule:nonzero;"/>
        </g>
        <g transform="matrix(2.24659,-3.50912,3.50912,2.24659,-14459.9,9115.35)">
            <path d="M3849.16,2745.71C3844.65,2753.83 3846,2763.61 3851.81,2770.2L3654.34,3140.78C3653.3,3143.69 3657.27,3145.7 3659,3143.13L3864.4,2777.16C3873.05,2778.57 3882.03,2774.53 3886.53,2766.43C3892.25,2756.11 3888.52,2743.11 3878.2,2737.38C3867.88,2731.66 3854.88,2735.39 3849.16,2745.71Z" style="fill:rgb(89,74,66);fill-rule:nonzero;"/>
        </g>
        <g transform="matrix(0.817636,0,0,0.790334,827.273,605.667)">
            <ellipse cx="4723.12" cy="2701.16" rx="1079.01" ry="1112.92" style="fill:white;"/>
        </g>
        <g transform="matrix(4.16667,0,0,4.16667,-2643.72,-12016)">
            <path d="M1759.9,3592.42C1771.68,3600.96 1784.56,3608.92 1798.08,3616.01C1783.75,3531.91 1807.75,3424.53 1853.63,3352.83C1835.68,3343.94 1816.29,3337.54 1795.91,3334.06C1758.58,3394.6 1733.28,3527.51 1759.9,3592.42Z" style="fill:rgb(89,74,66);fill-rule:nonzero;"/>
        </g>
        <g transform="matrix(4.16667,0,0,4.16667,-2643.72,-12016)">
            <path d="M1697.62,3526.84C1709.6,3545.52 1724.13,3562.39 1739.95,3576.45C1723.91,3506.57 1745.65,3392.96 1780.45,3332C1762.31,3330.27 1744.05,3330.87 1726.16,3333.78C1700.95,3384.57 1682.73,3467.99 1697.62,3526.84Z" style="fill:rgb(89,74,66);fill-rule:nonzero;"/>
        </g>
        <g transform="matrix(4.16667,0,0,4.16667,-2643.72,-12016)">
            <path d="M1872.86,3643.86C1887.11,3646.95 1900.66,3648.51 1913.2,3648.52C1907.57,3587.62 1925.01,3511.01 1954.89,3460.05C1945.45,3437.83 1932.32,3417.55 1916.26,3399.98C1877.46,3477.35 1860.64,3571.42 1872.86,3643.86Z" style="fill:rgb(89,74,66);fill-rule:nonzero;"/>
        </g>
        <g transform="matrix(4.16667,0,0,4.16667,-2643.72,-12016)">
            <path d="M1708.58,3337.42C1692.99,3341.35 1678.09,3347.01 1664.09,3354.18C1655.45,3400.55 1660.64,3447.31 1678.06,3489.39C1676.03,3439.7 1688.73,3381.66 1708.58,3337.42Z" style="fill:rgb(89,74,66);fill-rule:nonzero;"/>
        </g>
        <g transform="matrix(4.16667,0,0,4.16667,-2643.72,-12016)">
            <path d="M1814.21,3623.92C1828.45,3630.43 1843.11,3635.92 1857.74,3640.06C1846.13,3559.86 1867.87,3462.48 1905.66,3389.17C1893.77,3377.88 1880.57,3367.95 1866.31,3359.65C1819.13,3432.7 1797.04,3544.25 1814.21,3623.92Z" style="fill:rgb(89,74,66);fill-rule:nonzero;"/>
        </g>
        <g transform="matrix(4.16667,0,0,4.16667,-2643.72,-12016)">
            <path d="M1961.49,3477.78C1936.16,3526.74 1922.44,3594.66 1927.54,3647.8C1933.8,3647.14 1939.74,3646.04 1945.3,3644.47C1974.57,3591.59 1978.58,3530.86 1961.49,3477.78Z" style="fill:rgb(89,74,66);fill-rule:nonzero;"/>
        </g>
        <g transform="matrix(4.16667,0,0,4.16667,-2643.72,-12016)">
            <path d="M1552.89,3501.06C1528.5,3623.51 1614.81,3738.1 1735.23,3752.35C1643.97,3707.03 1567.93,3610.12 1552.89,3501.06Z" style="fill:rgb(89,74,66);fill-rule:nonzero;"/>
        </g>
        <g transform="matrix(4.16667,0,0,4.16667,-2643.72,-12016)">
            <path d="M1588.02,3419.94C1578.61,3433.12 1570.68,3447.43 1564.47,3462.62C1565.48,3602.53 1671.95,3719.87 1775.22,3753.29C1803.59,3751.29 1830.44,3743.66 1854.65,3731.52C1714.1,3695.48 1590.06,3566.15 1588.02,3419.94Z" style="fill:rgb(89,74,66);fill-rule:nonzero;"/>
        </g>
        <g transform="matrix(4.16667,0,0,4.16667,-2643.72,-12016)">
            <path d="M1648.09,3363.29C1631.25,3373.87 1616,3386.75 1602.79,3401.5C1593.26,3558.01 1733.81,3692.22 1873.11,3721.07C1897.55,3705.57 1918.61,3685.2 1934.91,3661.33C1815.47,3679.37 1621.29,3558.38 1648.09,3363.29Z" style="fill:rgb(89,74,66);fill-rule:nonzero;"/>
        </g>
    </g>
</svg>
